<svg width="382" height="314" viewBox="0 0 382 314" fill="none" xmlns="http://www.w3.org/2000/svg">
<path fill-rule="evenodd" clip-rule="evenodd" d="M321.661 303.455L295.558 309.333H293.166L217.601 301.765C215.208 301.707 212.708 301.521 210.287 301.795C200.365 302.918 182.787 303.005 171.957 301.697L164.37 301.765L87.1351 309.265H84.977L60.7686 303.767L64.5966 299.246C66.2763 297.254 68.6981 296.609 71.9695 296.316L161.098 288.455C162.612 288.328 163.989 287.596 165.21 286.58H185.873H221.009C222.278 287.693 223.831 288.484 225.95 288.67L308.517 295.935C312.94 296.326 316.173 296.658 318.595 299.656L321.661 303.455Z" fill="url(#paint0_linear_104_88)" stroke="url(#paint1_linear_104_88)" stroke-width="0.196802"/>
<path fill-rule="evenodd" clip-rule="evenodd" d="M60.4055 303.045L86.5012 309.323H88.9022C91.5196 304.796 94.9636 303.753 99.8443 303.301L164.454 297.436C166.835 297.2 169.354 297.18 171.775 297.456C176.321 297.968 184.941 298.302 191.297 298.341L191.317 286.179H161.049C159.79 287.301 158.235 288.088 156.109 288.265L73.5321 295.547C69.1238 295.921 65.8962 296.255 63.4559 299.266L60.4055 303.045Z" fill="url(#paint2_linear_104_88)"/>
<path fill-rule="evenodd" clip-rule="evenodd" d="M86.4619 309.343H88.9809C91.5984 304.796 94.944 304.147 99.8443 303.694L164.434 297.83C166.815 297.613 169.334 297.574 171.755 297.849C176.301 298.361 185.472 298.617 191.278 298.735V296.216L173.467 295.606C170.279 295.488 166.717 294.917 164.178 295.134L98.6635 300.86C94.2552 301.234 90.5553 302.887 88.4889 306.154L86.4619 309.343Z" fill="url(#paint3_linear_104_88)"/>
<g filter="url(#filter0_f_104_88)">
<path d="M190.904 296.216L173.487 295.606C170.299 295.488 166.737 294.917 164.198 295.134L98.6831 300.86C94.2551 301.234 90.5749 302.887 88.5085 306.154L86.4815 309.343" stroke="white" stroke-width="0.1968"/>
</g>
<g filter="url(#filter1_f_104_88)">
<path d="M191.337 296.216L173.113 295.606C169.944 295.488 166.382 294.917 163.844 295.134L98.3289 300.86C93.9009 301.234 90.2207 302.887 88.1347 306.154L86.1076 309.343" stroke="white" stroke-width="0.23616"/>
</g>
<path fill-rule="evenodd" clip-rule="evenodd" d="M321.643 303.045L295.548 309.323H293.147C290.529 304.796 287.085 303.753 282.205 303.301L217.595 297.436C215.214 297.2 212.695 297.18 210.274 297.456C205.728 297.968 197.108 298.302 190.752 298.341L190.732 286.179H221C222.259 287.301 223.814 288.088 225.94 288.265L308.517 295.547C312.925 295.921 316.153 296.255 318.593 299.266L321.643 303.045Z" fill="url(#paint4_linear_104_88)"/>
<path fill-rule="evenodd" clip-rule="evenodd" d="M295.587 309.343H293.068C290.451 304.796 287.105 304.147 282.205 303.694L217.615 297.83C215.234 297.613 212.715 297.574 210.294 297.849C205.748 298.361 196.577 298.617 190.771 298.735V296.216L208.582 295.606C211.77 295.488 215.332 294.917 217.871 295.134L283.386 300.86C287.794 301.234 291.494 302.887 293.56 306.154L295.587 309.343Z" fill="url(#paint5_linear_104_88)"/>
<g filter="url(#filter2_f_104_88)">
<path d="M191.145 296.216L208.562 295.606C211.75 295.488 215.312 294.917 217.851 295.134L283.366 300.86C287.794 301.234 291.474 302.887 293.54 306.154L295.567 309.343" stroke="white" stroke-width="0.1968"/>
</g>
<g filter="url(#filter3_f_104_88)">
<path d="M190.712 296.216L208.936 295.606C212.105 295.488 215.667 294.917 218.205 295.134L283.72 300.86C288.148 301.234 291.828 302.887 293.914 306.154L295.941 309.343" stroke="white" stroke-width="0.23616"/>
</g>
<path d="M217.621 291.853C217.621 293.611 206.166 295.037 192.025 295.037C177.885 295.037 166.43 293.611 166.43 291.853C166.43 290.086 177.885 288.66 192.025 288.66C206.166 288.66 217.621 290.086 217.621 291.853Z" fill="url(#paint6_linear_104_88)" stroke="url(#paint7_linear_104_88)" stroke-width="0.196802"/>
<path d="M168.513 290.883H214.427C214.624 290.883 214.781 291.04 214.781 291.237V299.424C214.781 299.64 168.159 295.901 168.159 299.424V291.237C168.159 291.04 168.317 290.883 168.513 290.883Z" fill="url(#paint8_linear_104_88)"/>
<path d="M168.513 247.547H214.427C214.624 247.547 214.781 247.705 214.781 247.902V291.65C214.781 291.847 214.624 292.004 214.427 292.004C199.155 291.139 183.805 291.296 168.513 292.004C168.317 292.004 168.159 291.847 168.159 291.65V247.902C168.159 247.705 168.317 247.547 168.513 247.547Z" fill="url(#paint9_linear_104_88)"/>
<mask id="mask0_104_88" style="mask-type:luminance" maskUnits="userSpaceOnUse" x="168" y="247" width="47" height="46">
<path d="M168.513 247.547H214.427C214.624 247.547 214.781 247.705 214.781 247.902V291.65C214.781 291.847 214.624 292.004 214.427 292.004C199.155 291.139 183.805 291.296 168.513 292.004C168.317 292.004 168.159 291.847 168.159 291.65V247.902C168.159 247.705 168.317 247.547 168.513 247.547Z" fill="white"/>
</mask>
<g mask="url(#mask0_104_88)">
<g filter="url(#filter4_f_104_88)">
<path d="M168.513 247.547H214.427C214.624 247.547 214.781 247.705 214.781 247.902V292.044C214.781 292.241 214.624 292.398 214.427 292.398C198.939 291.591 183.628 291.552 168.513 292.398C168.317 292.398 168.159 292.241 168.159 292.044V247.902C168.159 247.705 168.317 247.547 168.513 247.547Z" stroke="url(#paint10_linear_104_88)" stroke-width="0.7872"/>
</g>
</g>
<path d="M365.735 233.757C365.97 233.992 366.151 234.24 366.286 234.491C366.252 235.395 365.975 235.88 364.484 235.879C364.321 235.766 364.159 235.638 364.007 235.486C362.81 233.92 365.214 235.328 364.889 233.154C365.178 233.292 365.473 233.495 365.735 233.757Z" fill="url(#paint11_radial_104_88)"/>
<path d="M16.3445 233.757C16.1098 233.992 15.9292 234.24 15.7944 234.491C15.8281 235.395 16.1054 235.88 17.5961 235.879C17.7593 235.766 17.921 235.638 18.0729 235.486C19.2698 233.92 16.866 235.328 17.1909 233.154C16.9015 233.292 16.6069 233.495 16.3445 233.757Z" fill="url(#paint12_radial_104_88)"/>
<path d="M376.344 5.44427H5.78732C5.20647 5.44427 4.7356 5.91515 4.7356 6.49599V245.079C4.7356 245.66 5.20647 246.131 5.78732 246.131H376.344C376.925 246.131 377.396 245.66 377.396 245.079V6.49599C377.396 5.91515 376.925 5.44427 376.344 5.44427Z" fill="url(#paint13_linear_104_88)"/>
<path d="M365.127 15.7487H17.005C16.4241 15.7487 15.9532 16.2196 15.9532 16.8004V234.778C15.9532 235.359 16.4241 235.83 17.005 235.83H365.127C365.708 235.83 366.179 235.359 366.179 234.778V16.8004C366.179 16.2196 365.708 15.7487 365.127 15.7487Z" fill="url(#paint14_linear_104_88)"/>
<path d="M376.738 3.67326H5.39381C5.19337 3.67326 5.03088 3.83575 5.03088 4.03618V5.08154C5.03088 5.28198 5.19337 5.44446 5.39381 5.44446H376.738C376.938 5.44446 377.101 5.28198 377.101 5.08154V4.03618C377.101 3.83575 376.938 3.67326 376.738 3.67326Z" fill="url(#paint15_linear_104_88)"/>
<path d="M376.738 246.241H5.39381C5.19337 246.241 5.03088 246.403 5.03088 246.604V247.649C5.03088 247.85 5.19337 248.012 5.39381 248.012H376.738C376.938 248.012 377.101 247.85 377.101 247.649V246.604C377.101 246.403 376.938 246.241 376.738 246.241Z" fill="url(#paint16_linear_104_88)"/>
<path d="M363.812 16.9728H18.3275C17.7466 16.9728 17.2758 17.4437 17.2758 18.0245V233.543C17.2758 234.123 17.7466 234.594 18.3275 234.594H363.812C364.393 234.594 364.864 234.123 364.864 233.543V18.0245C364.864 17.4437 364.393 16.9728 363.812 16.9728Z" fill="url(#paint17_radial_104_88)"/>
<path d="M376.738 246.241H5.39381C5.19337 246.241 5.03088 246.403 5.03088 246.604V247.649C5.03088 247.85 5.19337 248.012 5.39381 248.012H376.738C376.938 248.012 377.101 247.85 377.101 247.649V246.604C377.101 246.403 376.938 246.241 376.738 246.241Z" fill="url(#paint18_linear_104_88)"/>
<path opacity="0.65639" d="M376.738 246.241H5.39381C5.19337 246.241 5.03088 246.403 5.03088 246.604V247.649C5.03088 247.85 5.19337 248.012 5.39381 248.012H376.738C376.938 248.012 377.101 247.85 377.101 247.649V246.604C377.101 246.403 376.938 246.241 376.738 246.241Z" fill="url(#paint19_linear_104_88)"/>
<g clip-path="url(#clip0_104_88)">
<path fill-rule="evenodd" clip-rule="evenodd" d="M94.22 136.783L78.0546 184.189H286.231L268.424 131.963H96.3031L94.22 136.783Z" fill="url(#paint20_radial_104_88)"/>
<path d="M127.34 68.5154C121.835 69.2512 121.781 75.6822 119.475 79.5941C117.589 84.3659 117.293 83.5151 117.348 87.863C117.416 109.963 117.212 132.078 117.451 154.169C119.284 160.143 126.138 157.708 130.769 158.214C170.627 158.144 210.497 158.35 250.346 158.111C256.32 156.279 253.886 149.424 254.391 144.795V85.898C252.674 80.8446 250.237 75.8911 248.227 70.865C244.678 66.9228 238.843 69.0786 234.123 68.5215C198.528 68.5184 162.933 68.5336 127.342 68.5154H127.34Z" fill="url(#paint21_radial_104_88)"/>
<path d="M240.454 68.6153C238.174 68.6577 235.809 68.9635 233.671 68.7092C198.077 68.7062 162.488 68.7213 126.893 68.7001C121.388 69.4389 121.327 75.879 119.021 79.7909C117.774 82.9429 117.22 83.6362 117.005 85.0048H253.559C251.876 80.3238 249.644 75.7246 247.779 71.0557C245.838 68.8999 243.207 68.5638 240.455 68.6153H240.454Z" fill="url(#paint22_linear_104_88)"/>
<path d="M117.32 132.314H254.449M129.331 132.341V157.941M174.01 132.341V157.941" stroke="white" stroke-opacity="0.57658" stroke-width="1.55305" stroke-linecap="round"/>
<path fill-rule="evenodd" clip-rule="evenodd" d="M151.93 106.884V132.49Z" fill="black"/>
<path d="M151.93 106.884V132.49" stroke="white" stroke-opacity="0.57658" stroke-width="1.55411"/>
<path fill-rule="evenodd" clip-rule="evenodd" d="M198.292 106.884V132.49Z" fill="black"/>
<path d="M198.292 106.884V132.49" stroke="white" stroke-opacity="0.57658" stroke-width="1.55411"/>
<path fill-rule="evenodd" clip-rule="evenodd" d="M243.176 106.578V132.184Z" fill="black"/>
<path d="M243.176 106.578V132.184" stroke="white" stroke-opacity="0.57658" stroke-width="1.55411"/>
<path fill-rule="evenodd" clip-rule="evenodd" d="M220.591 132.033V157.642Z" fill="black"/>
<path d="M220.591 132.033V157.642" stroke="white" stroke-opacity="0.57658" stroke-width="1.55411"/>
<path d="M117.12 106.908H254.524" stroke="white" stroke-opacity="0.56471" stroke-width="1.5872"/>
<path d="M117.136 85.3802H254.265" stroke="white" stroke-opacity="0.57658" stroke-width="1.55305" stroke-linecap="round"/>
<path fill-rule="evenodd" clip-rule="evenodd" d="M173.848 85.9888V107.492Z" fill="black"/>
<path d="M173.848 85.9888V107.492" stroke="white" stroke-opacity="0.57658" stroke-width="1.42413"/>
<path fill-rule="evenodd" clip-rule="evenodd" d="M129.341 84.8443V107.486Z" fill="black"/>
<path d="M129.341 84.8443V107.486" stroke="white" stroke-opacity="0.57658" stroke-width="1.4614"/>
<path fill-rule="evenodd" clip-rule="evenodd" d="M220.531 84.3902V107.032Z" fill="black"/>
<path d="M220.531 84.3902V107.032" stroke="white" stroke-opacity="0.57658" stroke-width="1.4614"/>
<path fill-rule="evenodd" clip-rule="evenodd" d="M211.282 87.3462C207.231 92.6654 205.512 99.4603 206.028 106.088C206.414 109.326 204.693 112.342 203.466 115.237C201.212 119.55 199.171 124.261 199.787 129.248C199.609 132.119 198.333 129.224 198.468 127.778C197.857 123.715 197.595 119.502 198.428 115.475C198.009 111.558 197.017 107.312 193.781 104.736C194.741 109.388 195.99 114.629 193.671 119.069C192.841 120.559 190.979 120.967 190.589 122.753C186.687 129.591 186.392 138.116 189.357 145.357C189.973 147.006 190.779 148.579 191.476 150.195C189.3 148.952 186.914 148.111 184.811 146.749C187.724 155.276 193.26 163.663 202.001 166.982C205.439 168.444 209.188 168.717 212.817 169.293C220.777 171.78 230.656 170.147 235.908 163.22C238.994 159.212 239.851 153.803 238.8 148.919C237.41 151.73 235.002 154.009 231.891 154.73C232.608 151.122 231.518 147.511 229.653 144.422C227.64 141.13 227.167 136.965 228.772 133.405C231.21 128.064 233.054 121.599 230.213 116.039C229.334 113.474 228.718 115.047 228.272 116.866C226.415 122.575 222.669 127.432 218.429 131.597C218.72 125.772 220.753 120.261 221.618 114.537C222.11 111.62 221.545 108.693 220.934 105.869C220.518 102.696 217.21 101.068 215.815 98.3494C213.328 94.7357 212.501 90.2409 212.355 85.9267C211.999 86.4002 211.639 86.8732 211.282 87.3462Z" fill="black" fill-opacity="0.40541"/>
<path fill-rule="evenodd" clip-rule="evenodd" d="M277.947 172.691C277.992 174.267 276.904 175.829 274.744 177.289C272.585 178.748 269.397 180.075 265.364 181.194C261.332 182.312 256.535 183.2 251.25 183.806C245.965 184.412 240.296 184.724 234.571 184.724C228.846 184.724 223.177 184.412 217.892 183.806C212.607 183.2 207.81 182.312 203.777 181.194C199.745 180.075 196.557 178.748 194.398 177.289C192.238 175.829 191.149 174.267 191.195 172.691C191.149 171.116 192.238 169.553 194.398 168.094C196.557 166.634 199.745 165.307 203.777 164.189C207.81 163.07 212.607 162.182 217.892 161.576C223.177 160.97 228.846 160.659 234.571 160.659C240.296 160.659 245.965 160.97 251.25 161.576C256.535 162.182 261.332 163.07 265.364 164.189C269.397 165.307 272.585 166.634 274.744 168.094C276.904 169.553 277.992 171.116 277.947 172.691Z" fill="url(#paint23_radial_104_88)"/>
<path fill-rule="evenodd" clip-rule="evenodd" d="M196.052 145.333C201.279 160.787 209.552 168.982 224.383 169.92C240.694 175.148 255.838 164.455 251.543 147.676C249.592 151.265 248.343 153.217 244.989 154.23C246.316 144.943 237.807 143.381 241.943 133.392C244.832 127.226 246.548 119.656 241.475 113.488C239.37 120.513 236.794 125.197 231.642 130.348C232.188 121.761 236.716 114.815 233.983 106.698C234.372 101.236 225.396 101.39 225.32 84.688C219.623 91.8688 217.201 97.4102 218.061 108.336C215.952 117.158 210.801 120.356 211.739 129.881C210.958 124.572 210.412 119.967 211.504 116.064C210.879 111.226 210.255 107.088 205.417 103.655C206.901 109.663 208.617 118.718 203.544 120.98C202.138 123.869 195.114 133.781 202.841 149.314C200.579 147.987 198.314 147.598 196.052 145.333Z" fill="url(#paint24_linear_104_88)" stroke="#FFFF00" stroke-opacity="0.50382" stroke-width="0.58281"/>
<path fill-rule="evenodd" clip-rule="evenodd" d="M223.62 88.0508C219.569 93.3713 217.85 100.166 218.366 106.79C218.753 110.031 217.031 113.047 215.804 115.942C213.55 120.256 211.509 124.967 212.125 129.951C211.95 132.824 210.674 129.929 210.806 128.483C210.195 124.421 209.933 120.204 210.768 116.18C210.347 112.264 209.355 108.017 206.12 105.442C207.082 110.09 208.331 115.331 206.011 119.775C205.179 121.264 203.319 121.669 202.93 123.459C199.025 130.297 198.733 138.822 201.695 146.062C202.311 147.711 203.117 149.284 203.814 150.9C201.641 149.657 199.252 148.814 197.152 147.454C200.063 155.979 205.601 164.369 214.342 167.688C217.777 169.15 221.526 169.423 225.158 169.999C233.118 172.485 242.997 170.853 248.249 163.925C251.332 159.917 252.189 154.509 251.141 149.625C249.749 152.436 247.34 154.714 244.229 155.436C244.946 151.828 243.856 148.214 241.991 145.127C239.981 141.835 239.505 137.67 241.113 134.11C243.548 128.77 245.392 122.305 242.554 116.745C241.675 114.177 241.056 115.753 240.61 117.572C238.756 123.28 235.007 128.137 230.767 132.302C231.061 126.478 233.094 120.967 233.956 115.242C234.451 112.326 233.883 109.399 233.272 106.574C232.856 103.401 229.55 101.771 228.153 99.0546C225.666 95.4398 224.839 90.9472 224.693 86.6318C224.337 87.1048 223.98 87.5778 223.62 88.0508Z" fill="url(#paint25_linear_104_88)"/>
<path fill-rule="evenodd" clip-rule="evenodd" d="M222.745 167.577C210.333 154.465 208.225 145.333 216.423 136.67C225.631 120.28 223.369 109.977 216.655 100.141C222.977 121.918 209.163 135.967 204.714 142.289C202.06 134.094 204.325 130.581 207.993 120.513C200.811 128.318 196.441 137.762 199.095 146.738C203.933 160.241 215.328 163.206 222.745 167.577Z" fill="url(#paint26_linear_104_88)" stroke="#FFFF00" stroke-opacity="0.50382" stroke-width="0.58281"/>
<path fill-rule="evenodd" clip-rule="evenodd" d="M237.805 118.034C236.14 113.196 237.499 112.161 238.956 110.047C240.459 109.461 239.997 107.42 240.818 102.874C242.059 107.947 245.394 110.255 237.805 118.034Z" fill="#FFD700" stroke="#FFFF00" stroke-opacity="0.50382" stroke-width="0.58281"/>
<path fill-rule="evenodd" clip-rule="evenodd" d="M239.675 102.079C239.167 104.236 239.397 106.612 238.459 108.626C236.256 110.307 235.297 113.428 236.261 116.08C236.561 118.302 237.256 118.685 238.489 116.656C241.118 113.95 243.581 110.072 242.083 106.193C241.408 104.215 240.816 102.206 240.062 100.254C239.932 100.863 239.802 101.471 239.675 102.079Z" fill="url(#paint27_linear_104_88)"/>
<path fill-rule="evenodd" clip-rule="evenodd" d="M248.5 147.676C252.792 143.538 251.935 141.743 251.543 138.778C250.294 137.373 251.857 135.5 253.416 130.348C249.438 134.954 244.754 135.578 248.5 147.676Z" fill="#FFD700" stroke="#FFFF00" stroke-opacity="0.50382" stroke-width="0.58281"/>
<path fill-rule="evenodd" clip-rule="evenodd" d="M228.364 167.577C233.202 164.847 234.529 156.26 235.153 146.738C236.324 137.527 238.667 128.318 254.119 126.834C247.797 131.908 242.646 138.151 244.989 149.781C244.364 166.72 231.796 166.096 228.364 167.577Z" fill="url(#paint28_linear_104_88)" stroke="#FFFF00" stroke-opacity="0.50382" stroke-width="0.58281"/>
<path fill-rule="evenodd" clip-rule="evenodd" d="M252.338 125.488C245.748 126.424 238.956 130.383 237.024 137.108C233.918 145.514 235.634 155.079 231.402 163.152C229.794 163.85 230.186 166.847 232.172 166.261C237.986 165.207 243.508 161.166 244.981 155.238C246.4 151.119 245.594 146.765 245.443 142.535C245.638 136.402 249.189 130.87 253.852 127.086C254.668 125.91 253.306 125.516 252.338 125.488Z" fill="url(#paint29_linear_104_88)"/>
<path fill-rule="evenodd" clip-rule="evenodd" d="M252.419 128.702C249.765 131.513 245.911 134.143 246.005 138.465C245.808 141.562 246.911 144.514 247.597 147.487C249.903 145.287 252.522 142.422 251.678 138.951C251.67 137.424 250.519 136.086 251.424 134.597C252.292 132.237 253.2 129.891 253.806 127.443C253.343 127.862 252.881 128.281 252.419 128.702Z" fill="url(#paint30_linear_104_88)"/>
<path fill-rule="evenodd" clip-rule="evenodd" d="M219.934 161.255C219.309 153.763 218.45 148.376 227.896 141.587C243.894 130.427 236.013 123.948 226.023 112.318C228.988 123.869 224.226 133.078 220.169 139.246C217.515 143.07 208.303 150.873 219.934 161.255Z" fill="url(#paint31_linear_104_88)" stroke="#FFFF00" stroke-opacity="0.50382" stroke-width="0.58281"/>
<path fill-rule="evenodd" clip-rule="evenodd" d="M213.831 106.293C218.153 101.317 217.042 99.2692 216.336 95.8431C214.836 94.2638 216.371 92.0261 217.601 85.9842C213.666 91.491 208.587 92.407 213.831 106.293Z" fill="#FFD700" stroke="#FFFF00" stroke-opacity="0.50382" stroke-width="0.58281"/>
<path fill-rule="evenodd" clip-rule="evenodd" d="M216.566 84.9239C214.05 88.2143 210.233 91.2507 210.433 95.8112C210.406 99.6032 211.901 103.142 213.017 106.698C215.298 104.096 217.725 100.787 216.709 97.1183C216.717 95.6663 215.701 94.5392 215.671 93.1678C216.228 89.9312 217.377 86.8046 217.831 83.5387C217.409 84.0004 216.988 84.4623 216.566 84.9239Z" fill="url(#paint32_linear_104_88)"/>
<path fill-rule="evenodd" clip-rule="evenodd" d="M225.78 110.382C227.512 118.256 225.729 126.553 221.745 133.47C219.272 138.227 214.393 141.87 213.928 147.527C213.182 152.46 216.736 156.571 220.028 159.755C221.369 161.441 220.22 157.455 220.401 156.522C219.866 151.671 220.699 146.227 224.612 142.9C228.972 138.659 235.188 135.721 237.275 129.627C238.689 124.245 234.924 119.421 231.642 115.599C229.664 113.199 227.577 110.893 225.502 108.574C225.596 109.177 225.688 109.78 225.78 110.382Z" fill="url(#paint33_linear_104_88)"/>
<path fill-rule="evenodd" clip-rule="evenodd" d="M217.917 103.396C218.088 107.12 219.147 110.807 218.661 114.566C218.234 123.34 214.379 131.594 209.055 138.462C208.068 139.865 207.017 141.222 205.998 142.603C204.638 138.07 205.252 133.181 207.084 128.881C208.049 126.58 208.728 124.194 209.082 121.723C203.995 126.364 200.403 132.689 199.141 139.462C198.116 145.725 200.319 152.163 204.474 156.868C209.695 163.031 217.207 166.493 224.488 169.588C220.363 163.788 214.62 158.552 213.401 151.219C212.563 146.962 214.239 142.692 217.036 139.508C220.236 135.111 222.228 129.883 223.412 124.602C224.95 117.729 223.718 110.293 219.961 104.333C219.034 103.655 217.377 100.094 217.917 103.396Z" fill="url(#paint34_linear_104_88)"/>
<path fill-rule="evenodd" clip-rule="evenodd" d="M268.141 147.858C263.871 160.481 257.113 167.175 245 167.941C231.676 172.211 219.306 163.477 222.814 149.772C224.408 152.704 225.428 154.298 228.168 155.126C227.084 147.54 234.034 146.264 230.656 138.104C228.296 133.069 226.894 126.885 231.038 121.847C232.758 127.585 234.862 131.411 239.07 135.618C238.624 128.605 234.926 122.931 237.158 116.301C236.84 111.839 244.172 111.965 244.233 98.3227C248.887 104.188 250.865 108.714 250.163 117.639C251.885 124.845 256.093 127.457 255.327 135.236C255.965 130.901 256.411 127.139 255.519 123.951C256.029 119.999 256.539 116.619 260.491 113.815C259.279 118.723 257.877 126.119 262.021 127.967C263.169 130.327 268.907 138.422 262.595 151.11C264.443 150.026 266.293 149.708 268.141 147.858Z" fill="url(#paint35_linear_104_88)" stroke="#FFFF00" stroke-opacity="0.50382" stroke-width="0.476045"/>
<path fill-rule="evenodd" clip-rule="evenodd" d="M245.622 101.07C248.931 105.415 250.336 110.965 249.914 116.376C249.598 119.023 251.004 121.487 252.007 123.851C253.848 127.375 255.515 131.223 255.011 135.294C255.155 137.641 256.197 135.276 256.089 134.095C256.588 130.777 256.802 127.333 256.12 124.046C256.464 120.847 257.274 117.378 259.917 115.275C259.131 119.072 258.111 123.352 260.005 126.982C260.685 128.198 262.204 128.53 262.522 129.991C265.712 135.576 265.951 142.54 263.531 148.454C263.028 149.801 262.37 151.086 261.8 152.406C263.575 151.39 265.527 150.701 267.242 149.591C264.864 156.554 260.341 163.407 253.201 166.118C250.395 167.312 247.333 167.535 244.366 168.005C237.864 170.036 229.795 168.703 225.506 163.045C222.987 159.771 222.287 155.353 223.143 151.364C224.28 153.66 226.247 155.521 228.788 156.11C228.203 153.163 229.093 150.211 230.616 147.69C232.259 145.001 232.647 141.599 231.334 138.692C229.345 134.329 227.839 129.048 230.157 124.507C230.875 122.41 231.38 123.697 231.745 125.183C233.259 129.845 236.321 133.813 239.785 137.215C239.544 132.457 237.884 127.956 237.18 123.28C236.776 120.898 237.239 118.507 237.738 116.2C238.078 113.608 240.778 112.276 241.92 110.058C243.951 107.105 244.626 103.435 244.746 99.9105C245.037 100.297 245.328 100.683 245.622 101.07Z" fill="url(#paint36_linear_104_88)"/>
<path fill-rule="evenodd" clip-rule="evenodd" d="M246.337 166.027C256.475 155.318 258.197 147.858 251.501 140.782C243.98 127.395 245.827 118.979 251.311 110.945C246.148 128.733 257.431 140.208 261.065 145.372C263.233 138.678 261.383 135.808 258.387 127.585C264.253 133.96 267.823 141.674 265.655 149.006C261.703 160.036 252.395 162.457 246.337 166.027Z" fill="url(#paint37_linear_104_88)" stroke="#FFFF00" stroke-opacity="0.50382" stroke-width="0.476045"/>
<path fill-rule="evenodd" clip-rule="evenodd" d="M234.036 125.56C235.396 121.608 234.286 120.763 233.096 119.036C231.868 118.557 232.246 116.891 231.575 113.177C230.561 117.321 227.837 119.206 234.036 125.56Z" fill="#FFD700" stroke="#FFFF00" stroke-opacity="0.50382" stroke-width="0.476045"/>
<path fill-rule="evenodd" clip-rule="evenodd" d="M232.508 112.528C232.923 114.29 232.736 116.23 233.502 117.875C235.301 119.248 236.085 121.798 235.297 123.964C235.052 125.779 234.484 126.092 233.478 124.434C231.33 122.224 229.318 119.056 230.541 115.888C231.093 114.272 231.577 112.632 232.193 111.037C232.299 111.535 232.405 112.031 232.508 112.528Z" fill="url(#paint38_linear_104_88)"/>
<path fill-rule="evenodd" clip-rule="evenodd" d="M225.3 149.772C221.794 146.392 222.494 144.926 222.814 142.504C223.834 141.356 222.558 139.826 221.285 135.618C224.534 139.38 228.36 139.89 225.3 149.772Z" fill="#FFD700" stroke="#FFFF00" stroke-opacity="0.50382" stroke-width="0.476045"/>
<path fill-rule="evenodd" clip-rule="evenodd" d="M241.748 166.027C237.796 163.797 236.712 156.784 236.202 149.006C235.246 141.482 233.332 133.96 220.711 132.748C225.874 136.892 230.082 141.992 228.168 151.492C228.678 165.327 238.944 164.817 241.748 166.027Z" fill="url(#paint39_linear_104_88)" stroke="#FFFF00" stroke-opacity="0.50382" stroke-width="0.476045"/>
<path fill-rule="evenodd" clip-rule="evenodd" d="M222.165 131.649C227.548 132.413 233.096 135.647 234.674 141.14C237.211 148.006 235.809 155.819 239.266 162.413C240.58 162.983 240.26 165.431 238.637 164.952C233.888 164.091 229.378 160.791 228.175 155.949C227.016 152.585 227.674 149.028 227.797 145.573C227.638 140.564 224.737 136.045 220.929 132.954C220.262 131.993 221.375 131.671 222.165 131.649Z" fill="url(#paint40_linear_104_88)"/>
<path fill-rule="evenodd" clip-rule="evenodd" d="M222.099 134.274C224.267 136.57 227.415 138.718 227.338 142.248C227.499 144.778 226.598 147.189 226.038 149.617C224.154 147.82 222.015 145.48 222.704 142.646C222.711 141.398 223.651 140.305 222.911 139.089C222.203 137.162 221.461 135.245 220.967 133.245C221.344 133.587 221.722 133.93 222.099 134.274Z" fill="url(#paint41_linear_104_88)"/>
<path fill-rule="evenodd" clip-rule="evenodd" d="M248.633 160.863C249.143 154.744 249.845 150.344 242.13 144.798C229.062 135.682 235.5 130.391 243.659 120.891C241.238 130.327 245.128 137.848 248.441 142.886C250.609 146.01 258.133 152.384 248.633 160.863Z" fill="url(#paint42_linear_104_88)" stroke="#FFFF00" stroke-opacity="0.50382" stroke-width="0.476045"/>
<path fill-rule="evenodd" clip-rule="evenodd" d="M253.618 115.97C250.088 111.906 250.996 110.233 251.572 107.434C252.797 106.144 251.543 104.317 250.539 99.3815C253.753 103.879 257.901 104.628 253.618 115.97Z" fill="#FFD700" stroke="#FFFF00" stroke-opacity="0.50382" stroke-width="0.476045"/>
<path fill-rule="evenodd" clip-rule="evenodd" d="M251.384 98.5154C253.44 101.203 256.557 103.683 256.393 107.408C256.416 110.506 255.195 113.396 254.283 116.301C252.42 114.175 250.437 111.473 251.267 108.476C251.261 107.29 252.091 106.369 252.115 105.249C251.66 102.605 250.722 100.052 250.351 97.384C250.695 97.7611 251.04 98.1384 251.384 98.5154Z" fill="url(#paint43_linear_104_88)"/>
<path fill-rule="evenodd" clip-rule="evenodd" d="M243.858 119.31C242.443 125.741 243.9 132.519 247.154 138.168C249.174 142.054 253.159 145.03 253.539 149.651C254.148 153.68 251.245 157.037 248.556 159.638C247.461 161.016 248.399 157.759 248.252 156.998C248.689 153.035 248.009 148.589 244.812 145.871C241.251 142.407 236.173 140.007 234.469 135.029C233.314 130.633 236.39 126.693 239.07 123.571C240.686 121.611 242.39 119.727 244.086 117.833C244.008 118.326 243.933 118.818 243.858 119.31Z" fill="url(#paint44_linear_104_88)"/>
<path fill-rule="evenodd" clip-rule="evenodd" d="M250.28 113.603C250.141 116.645 249.276 119.657 249.673 122.728C250.022 129.894 253.17 136.636 257.519 142.246C258.325 143.392 259.184 144.5 260.016 145.628C261.127 141.926 260.626 137.932 259.129 134.42C258.341 132.541 257.787 130.591 257.497 128.574C261.652 132.364 264.586 137.53 265.617 143.063C266.454 148.178 264.655 153.437 261.261 157.28C256.996 162.314 250.861 165.142 244.913 167.67C248.282 162.932 252.974 158.656 253.969 152.666C254.654 149.189 253.285 145.701 251 143.1C248.386 139.508 246.759 135.239 245.792 130.925C244.536 125.311 245.543 119.237 248.611 114.369C249.369 113.815 250.722 110.906 250.28 113.603Z" fill="url(#paint45_linear_104_88)"/>
</g>
<defs>
<filter id="filter0_f_104_88" x="86.0471" y="294.635" width="105.211" height="15.1114" filterUnits="userSpaceOnUse" color-interpolation-filters="sRGB">
<feFlood flood-opacity="0" result="BackgroundImageFix"/>
<feBlend mode="normal" in="SourceGraphic" in2="BackgroundImageFix" result="shape"/>
<feGaussianBlur stdDeviation="0.175686" result="effect1_foregroundBlur_104_88"/>
</filter>
<filter id="filter1_f_104_88" x="85.7737" y="294.733" width="105.801" height="14.9074" filterUnits="userSpaceOnUse" color-interpolation-filters="sRGB">
<feFlood flood-opacity="0" result="BackgroundImageFix"/>
<feBlend mode="normal" in="SourceGraphic" in2="BackgroundImageFix" result="shape"/>
<feGaussianBlur stdDeviation="0.117124" result="effect1_foregroundBlur_104_88"/>
</filter>
<filter id="filter2_f_104_88" x="190.791" y="294.635" width="105.211" height="15.1114" filterUnits="userSpaceOnUse" color-interpolation-filters="sRGB">
<feFlood flood-opacity="0" result="BackgroundImageFix"/>
<feBlend mode="normal" in="SourceGraphic" in2="BackgroundImageFix" result="shape"/>
<feGaussianBlur stdDeviation="0.175686" result="effect1_foregroundBlur_104_88"/>
</filter>
<filter id="filter3_f_104_88" x="190.474" y="294.733" width="105.801" height="14.9074" filterUnits="userSpaceOnUse" color-interpolation-filters="sRGB">
<feFlood flood-opacity="0" result="BackgroundImageFix"/>
<feBlend mode="normal" in="SourceGraphic" in2="BackgroundImageFix" result="shape"/>
<feGaussianBlur stdDeviation="0.117124" result="effect1_foregroundBlur_104_88"/>
</filter>
<filter id="filter4_f_104_88" x="167.57" y="246.958" width="47.8001" height="46.0289" filterUnits="userSpaceOnUse" color-interpolation-filters="sRGB">
<feFlood flood-opacity="0" result="BackgroundImageFix"/>
<feBlend mode="normal" in="SourceGraphic" in2="BackgroundImageFix" result="shape"/>
<feGaussianBlur stdDeviation="0.0977486" result="effect1_foregroundBlur_104_88"/>
</filter>
<linearGradient id="paint0_linear_104_88" x1="156.042" y1="300.648" x2="231.87" y2="300.982" gradientUnits="userSpaceOnUse">
<stop stop-color="#16191E"/>
<stop offset="0.16349" stop-color="#3A3D43"/>
<stop offset="0.23888" stop-color="#16191E"/>
<stop offset="0.46134" stop-color="#4A4F56"/>
<stop offset="0.66194" stop-color="#16191E"/>
<stop offset="0.75" stop-color="#36393F"/>
<stop offset="1" stop-color="#16191E"/>
</linearGradient>
<linearGradient id="paint1_linear_104_88" x1="60.6661" y1="297.951" x2="321.75" y2="297.951" gradientUnits="userSpaceOnUse">
<stop/>
<stop offset="1" stop-opacity="0"/>
</linearGradient>
<linearGradient id="paint2_linear_104_88" x1="74.6932" y1="306.646" x2="76.6809" y2="297.948" gradientUnits="userSpaceOnUse">
<stop stop-color="#53555A"/>
<stop offset="1" stop-color="#E7E8EC"/>
</linearGradient>
<linearGradient id="paint3_linear_104_88" x1="188.941" y1="297.475" x2="86.3889" y2="297.475" gradientUnits="userSpaceOnUse">
<stop stop-color="#9C9EAA"/>
<stop offset="0.16567" stop-color="#32373B"/>
<stop offset="0.20498" stop-color="#9C9EA9"/>
<stop offset="0.23579" stop-color="#363B3F"/>
<stop offset="0.74124" stop-color="#515257"/>
<stop offset="1" stop-color="#4A4F53"/>
</linearGradient>
<linearGradient id="paint4_linear_104_88" x1="307.356" y1="306.646" x2="305.368" y2="297.948" gradientUnits="userSpaceOnUse">
<stop stop-color="#53555A"/>
<stop offset="1" stop-color="#E7E8EC"/>
</linearGradient>
<linearGradient id="paint5_linear_104_88" x1="193.108" y1="297.475" x2="295.66" y2="297.475" gradientUnits="userSpaceOnUse">
<stop stop-color="#9C9EAA"/>
<stop offset="0.16567" stop-color="#32373B"/>
<stop offset="0.20498" stop-color="#868896"/>
<stop offset="0.23579" stop-color="#363B3F"/>
<stop offset="0.74124" stop-color="#515257"/>
<stop offset="1" stop-color="#4A4F53"/>
</linearGradient>
<linearGradient id="paint6_linear_104_88" x1="194.719" y1="296.055" x2="194.719" y2="290.28" gradientUnits="userSpaceOnUse">
<stop stop-color="#B5B7BB"/>
<stop offset="1" stop-color="#E5E6EA"/>
</linearGradient>
<linearGradient id="paint7_linear_104_88" x1="189.6" y1="295.854" x2="189.6" y2="290.717" gradientUnits="userSpaceOnUse">
<stop stop-color="#888B95"/>
<stop offset="1" stop-color="#F0F1F5"/>
</linearGradient>
<linearGradient id="paint8_linear_104_88" x1="198.25" y1="291.674" x2="198.25" y2="296.102" gradientUnits="userSpaceOnUse">
<stop stop-color="#979AA4"/>
<stop offset="1" stop-color="#979AA4" stop-opacity="0"/>
</linearGradient>
<linearGradient id="paint9_linear_104_88" x1="172.292" y1="276.064" x2="172.823" y2="237.117" gradientUnits="userSpaceOnUse">
<stop stop-color="#979AA4"/>
<stop offset="1" stop-color="#50525A"/>
</linearGradient>
<linearGradient id="paint10_linear_104_88" x1="177.861" y1="291.985" x2="177.861" y2="268.861" gradientUnits="userSpaceOnUse">
<stop stop-color="#4C5059"/>
<stop offset="1" stop-color="#818590"/>
</linearGradient>
<radialGradient id="paint11_radial_104_88" cx="0" cy="0" r="1" gradientUnits="userSpaceOnUse" gradientTransform="translate(364.873 234.619) rotate(-45) scale(1.22069 2.01412)">
<stop stop-color="#CCCCCC"/>
<stop offset="1" stop-color="#C1C1C1" stop-opacity="0"/>
</radialGradient>
<radialGradient id="paint12_radial_104_88" cx="0" cy="0" r="1" gradientUnits="userSpaceOnUse" gradientTransform="translate(17.2066 234.619) rotate(-135) scale(1.22069 2.01412)">
<stop stop-color="#CCCCCC"/>
<stop offset="1" stop-color="#C1C1C1" stop-opacity="0"/>
</radialGradient>
<linearGradient id="paint13_linear_104_88" x1="97.6291" y1="243.297" x2="97.6291" y2="5.29294" gradientUnits="userSpaceOnUse">
<stop stop-color="#1D2025"/>
<stop offset="1" stop-color="#31343B"/>
</linearGradient>
<linearGradient id="paint14_linear_104_88" x1="192.735" y1="235.149" x2="192.735" y2="15.5088" gradientUnits="userSpaceOnUse">
<stop stop-color="#5E6169"/>
<stop offset="1" stop-color="#1C2125"/>
</linearGradient>
<linearGradient id="paint15_linear_104_88" x1="7.87071" y1="4.63955" x2="184.272" y2="4.63955" gradientUnits="userSpaceOnUse">
<stop stop-color="#ABAFB8"/>
<stop offset="1" stop-color="#BEBDC5"/>
</linearGradient>
<linearGradient id="paint16_linear_104_88" x1="5.80431" y1="247.207" x2="184.272" y2="247.207" gradientUnits="userSpaceOnUse">
<stop stop-color="#8F919D"/>
<stop offset="1" stop-color="#878A95"/>
</linearGradient>
<radialGradient id="paint17_radial_104_88" cx="0" cy="0" r="1" gradientUnits="userSpaceOnUse" gradientTransform="translate(191.062 16.9686) rotate(90) scale(187.141 209.399)">
<stop stop-color="#3A3B3E"/>
<stop offset="0.619792" stop-color="#232528"/>
<stop offset="1" stop-color="#15181B"/>
</radialGradient>
<linearGradient id="paint18_linear_104_88" x1="195.214" y1="248.105" x2="195.214" y2="246.924" gradientUnits="userSpaceOnUse">
<stop stop-color="#575A62" stop-opacity="0.99967"/>
<stop offset="1" stop-color="#878A95" stop-opacity="0"/>
</linearGradient>
<linearGradient id="paint19_linear_104_88" x1="195.214" y1="248.012" x2="195.214" y2="246.239" gradientUnits="userSpaceOnUse">
<stop stop-color="#6B6F7A" stop-opacity="0"/>
<stop offset="1" stop-color="#EBEBED"/>
</linearGradient>
<radialGradient id="paint20_radial_104_88" cx="0" cy="0" r="1" gradientUnits="userSpaceOnUse" gradientTransform="translate(182.141 158.076) scale(104.088 26.1123)">
<stop stop-color="#929292"/>
<stop offset="1" stop-color="white" stop-opacity="0"/>
</radialGradient>
<radialGradient id="paint21_radial_104_88" cx="0" cy="0" r="1" gradientUnits="userSpaceOnUse" gradientTransform="translate(222.158 133.881) rotate(-1.10584) scale(94.5597 77.116)">
<stop stop-color="#C74615"/>
<stop offset="1" stop-color="#6E260B"/>
</radialGradient>
<linearGradient id="paint22_linear_104_88" x1="117.005" y1="76.8086" x2="253.558" y2="76.8086" gradientUnits="userSpaceOnUse">
<stop stop-color="#3B1E05"/>
<stop offset="1" stop-color="#3B1E05" stop-opacity="0"/>
</linearGradient>
<radialGradient id="paint23_radial_104_88" cx="0" cy="0" r="1" gradientUnits="userSpaceOnUse" gradientTransform="translate(234.572 172.692) scale(43.3777 11.9388)">
<stop stop-color="#929292"/>
<stop offset="1" stop-color="white" stop-opacity="0"/>
</radialGradient>
<linearGradient id="paint24_linear_104_88" x1="208.101" y1="163.815" x2="235.62" y2="113.365" gradientUnits="userSpaceOnUse">
<stop stop-color="#DC0000"/>
<stop offset="1" stop-color="#FFB200"/>
</linearGradient>
<linearGradient id="paint25_linear_104_88" x1="166.448" y1="88.467" x2="253.777" y2="132.631" gradientUnits="userSpaceOnUse">
<stop stop-color="white"/>
<stop offset="1" stop-color="white" stop-opacity="0"/>
</linearGradient>
<linearGradient id="paint26_linear_104_88" x1="215.615" y1="161.252" x2="197.899" y2="147.509" gradientUnits="userSpaceOnUse">
<stop stop-color="#DC0000"/>
<stop offset="1" stop-color="#FFB200"/>
</linearGradient>
<linearGradient id="paint27_linear_104_88" x1="236.426" y1="109.733" x2="242.01" y2="109.733" gradientUnits="userSpaceOnUse">
<stop stop-color="white" stop-opacity="0.44928"/>
<stop offset="1" stop-color="white" stop-opacity="0"/>
</linearGradient>
<linearGradient id="paint28_linear_104_88" x1="234.013" y1="162.159" x2="257.673" y2="142.793" gradientUnits="userSpaceOnUse">
<stop stop-color="#DC0000"/>
<stop offset="1" stop-color="#FFB200"/>
</linearGradient>
<linearGradient id="paint29_linear_104_88" x1="273.744" y1="129.002" x2="227.727" y2="145.008" gradientUnits="userSpaceOnUse">
<stop stop-color="white"/>
<stop offset="1" stop-color="white" stop-opacity="0"/>
</linearGradient>
<linearGradient id="paint30_linear_104_88" x1="246.514" y1="137.745" x2="252.805" y2="137.745" gradientUnits="userSpaceOnUse">
<stop stop-color="white" stop-opacity="0.44928"/>
<stop offset="1" stop-color="white" stop-opacity="0"/>
</linearGradient>
<linearGradient id="paint31_linear_104_88" x1="220.29" y1="175.019" x2="242.184" y2="139.705" gradientUnits="userSpaceOnUse">
<stop stop-color="#DC0000"/>
<stop offset="1" stop-color="#FFB200"/>
</linearGradient>
<linearGradient id="paint32_linear_104_88" x1="210.975" y1="95.4138" x2="216.989" y2="95.4138" gradientUnits="userSpaceOnUse">
<stop stop-color="white" stop-opacity="0.44928"/>
<stop offset="1" stop-color="white" stop-opacity="0"/>
</linearGradient>
<linearGradient id="paint33_linear_104_88" x1="202.346" y1="94.4673" x2="248.513" y2="117.993" gradientUnits="userSpaceOnUse">
<stop stop-color="white"/>
<stop offset="1" stop-color="white" stop-opacity="0"/>
</linearGradient>
<linearGradient id="paint34_linear_104_88" x1="184.557" y1="110.465" x2="222.518" y2="124.627" gradientUnits="userSpaceOnUse">
<stop stop-color="white"/>
<stop offset="1" stop-color="white" stop-opacity="0"/>
</linearGradient>
<linearGradient id="paint35_linear_104_88" x1="258.299" y1="162.954" x2="235.821" y2="121.746" gradientUnits="userSpaceOnUse">
<stop stop-color="#DC0000"/>
<stop offset="1" stop-color="#FFB200"/>
</linearGradient>
<linearGradient id="paint36_linear_104_88" x1="292.321" y1="101.41" x2="220.99" y2="137.483" gradientUnits="userSpaceOnUse">
<stop stop-color="white"/>
<stop offset="1" stop-color="white" stop-opacity="0"/>
</linearGradient>
<linearGradient id="paint37_linear_104_88" x1="252.161" y1="160.861" x2="266.632" y2="149.635" gradientUnits="userSpaceOnUse">
<stop stop-color="#DC0000"/>
<stop offset="1" stop-color="#FFB200"/>
</linearGradient>
<linearGradient id="paint38_linear_104_88" x1="235.162" y1="118.779" x2="230.601" y2="118.779" gradientUnits="userSpaceOnUse">
<stop stop-color="white" stop-opacity="0.44928"/>
<stop offset="1" stop-color="white" stop-opacity="0"/>
</linearGradient>
<linearGradient id="paint39_linear_104_88" x1="237.133" y1="161.601" x2="217.807" y2="145.783" gradientUnits="userSpaceOnUse">
<stop stop-color="#DC0000"/>
<stop offset="1" stop-color="#FFB200"/>
</linearGradient>
<linearGradient id="paint40_linear_104_88" x1="204.681" y1="134.519" x2="242.268" y2="147.593" gradientUnits="userSpaceOnUse">
<stop stop-color="white"/>
<stop offset="1" stop-color="white" stop-opacity="0"/>
</linearGradient>
<linearGradient id="paint41_linear_104_88" x1="226.923" y1="141.66" x2="221.784" y2="141.66" gradientUnits="userSpaceOnUse">
<stop stop-color="white" stop-opacity="0.44928"/>
<stop offset="1" stop-color="white" stop-opacity="0"/>
</linearGradient>
<linearGradient id="paint42_linear_104_88" x1="248.343" y1="172.106" x2="230.459" y2="143.261" gradientUnits="userSpaceOnUse">
<stop stop-color="#DC0000"/>
<stop offset="1" stop-color="#FFB200"/>
</linearGradient>
<linearGradient id="paint43_linear_104_88" x1="255.951" y1="107.084" x2="251.039" y2="107.084" gradientUnits="userSpaceOnUse">
<stop stop-color="white" stop-opacity="0.44928"/>
<stop offset="1" stop-color="white" stop-opacity="0"/>
</linearGradient>
<linearGradient id="paint44_linear_104_88" x1="262.999" y1="106.311" x2="225.29" y2="125.527" gradientUnits="userSpaceOnUse">
<stop stop-color="white"/>
<stop offset="1" stop-color="white" stop-opacity="0"/>
</linearGradient>
<linearGradient id="paint45_linear_104_88" x1="277.53" y1="119.377" x2="246.522" y2="130.946" gradientUnits="userSpaceOnUse">
<stop stop-color="white"/>
<stop offset="1" stop-color="white" stop-opacity="0"/>
</linearGradient>
<clipPath id="clip0_104_88">
<rect width="212.373" height="213.187" fill="white" transform="translate(85 23)"/>
</clipPath>
</defs>
</svg>
