<svg width="383" height="314" viewBox="0 0 383 314" fill="none" xmlns="http://www.w3.org/2000/svg">
<path fill-rule="evenodd" clip-rule="evenodd" d="M322.031 303.455L295.928 309.333H293.536L217.971 301.765C215.578 301.707 213.078 301.521 210.657 301.795C200.735 302.918 183.157 303.005 172.327 301.697L164.74 301.765L87.5052 309.265H85.347L61.1386 303.767L64.9667 299.246C66.6463 297.254 69.0681 296.609 72.3395 296.316L161.468 288.455C162.982 288.328 164.359 287.596 165.58 286.58H186.243H221.379C222.649 287.693 224.201 288.484 226.32 288.67L308.887 295.935C313.311 296.326 316.543 296.658 318.965 299.656L322.031 303.455Z" fill="url(#paint0_linear_104_60)" stroke="url(#paint1_linear_104_60)" stroke-width="0.196802"/>
<path fill-rule="evenodd" clip-rule="evenodd" d="M60.7755 303.045L86.8712 309.323H89.2722C91.8896 304.796 95.3336 303.753 100.214 303.301L164.824 297.436C167.205 297.2 169.724 297.18 172.145 297.456C176.691 297.968 185.311 298.302 191.667 298.341L191.687 286.179H161.419C160.16 287.301 158.605 288.088 156.479 288.265L73.9021 295.547C69.4938 295.921 66.2662 296.255 63.8259 299.266L60.7755 303.045Z" fill="url(#paint2_linear_104_60)"/>
<path fill-rule="evenodd" clip-rule="evenodd" d="M86.8319 309.343H89.3509C91.9683 304.796 95.3139 304.147 100.214 303.694L164.804 297.83C167.185 297.613 169.704 297.574 172.125 297.849C176.671 298.361 185.842 298.617 191.648 298.735V296.216L173.837 295.606C170.649 295.488 167.087 294.917 164.548 295.134L99.0334 300.86C94.6251 301.234 90.9253 302.887 88.8589 306.154L86.8319 309.343Z" fill="url(#paint3_linear_104_60)"/>
<g filter="url(#filter0_f_104_60)">
<path d="M191.274 296.216L173.857 295.606C170.669 295.488 167.107 294.917 164.568 295.134L99.0531 300.86C94.6251 301.234 90.9449 302.887 88.8785 306.154L86.8515 309.343" stroke="white" stroke-width="0.1968"/>
</g>
<g filter="url(#filter1_f_104_60)">
<path d="M191.707 296.216L173.483 295.606C170.314 295.488 166.752 294.917 164.214 295.134L98.6989 300.86C94.2709 301.234 90.5907 302.887 88.5046 306.154L86.4776 309.343" stroke="white" stroke-width="0.23616"/>
</g>
<path fill-rule="evenodd" clip-rule="evenodd" d="M322.014 303.045L295.918 309.323H293.517C290.899 304.796 287.455 303.753 282.575 303.301L217.965 297.436C215.584 297.2 213.065 297.18 210.644 297.456C206.098 297.968 197.478 298.302 191.122 298.341L191.102 286.179H221.37C222.63 287.301 224.184 288.088 226.31 288.265L308.887 295.547C313.295 295.921 316.523 296.255 318.963 299.266L322.014 303.045Z" fill="url(#paint4_linear_104_60)"/>
<path fill-rule="evenodd" clip-rule="evenodd" d="M295.957 309.343H293.438C290.821 304.796 287.475 304.147 282.575 303.694L217.985 297.83C215.604 297.613 213.085 297.574 210.664 297.849C206.118 298.361 196.947 298.617 191.141 298.735V296.216L208.952 295.606C212.14 295.488 215.702 294.917 218.241 295.134L283.756 300.86C288.164 301.234 291.864 302.887 293.93 306.154L295.957 309.343Z" fill="url(#paint5_linear_104_60)"/>
<g filter="url(#filter2_f_104_60)">
<path d="M191.515 296.216L208.932 295.606C212.12 295.488 215.682 294.917 218.221 295.134L283.736 300.86C288.164 301.234 291.844 302.887 293.91 306.154L295.937 309.343" stroke="white" stroke-width="0.1968"/>
</g>
<g filter="url(#filter3_f_104_60)">
<path d="M191.082 296.216L209.306 295.606C212.475 295.488 216.037 294.917 218.575 295.134L284.09 300.86C288.518 301.234 292.198 302.887 294.284 306.154L296.311 309.343" stroke="white" stroke-width="0.23616"/>
</g>
<path d="M217.99 291.853C217.99 293.611 206.536 295.037 192.395 295.037C178.255 295.037 166.8 293.611 166.8 291.853C166.8 290.086 178.255 288.66 192.395 288.66C206.536 288.66 217.99 290.086 217.99 291.853Z" fill="url(#paint6_linear_104_60)" stroke="url(#paint7_linear_104_60)" stroke-width="0.196802"/>
<path d="M168.883 290.883H214.797C214.994 290.883 215.151 291.04 215.151 291.237V299.424C215.151 299.64 168.529 295.901 168.529 299.424V291.237C168.529 291.04 168.687 290.883 168.883 290.883Z" fill="url(#paint8_linear_104_60)"/>
<path d="M168.883 247.547H214.797C214.994 247.547 215.151 247.705 215.151 247.902V291.65C215.151 291.847 214.994 292.004 214.797 292.004C199.525 291.139 184.175 291.296 168.883 292.004C168.687 292.004 168.529 291.847 168.529 291.65V247.902C168.529 247.705 168.687 247.547 168.883 247.547Z" fill="url(#paint9_linear_104_60)"/>
<mask id="mask0_104_60" style="mask-type:luminance" maskUnits="userSpaceOnUse" x="168" y="247" width="48" height="46">
<path d="M168.883 247.547H214.797C214.994 247.547 215.151 247.705 215.151 247.902V291.65C215.151 291.847 214.994 292.004 214.797 292.004C199.525 291.139 184.175 291.296 168.883 292.004C168.687 292.004 168.529 291.847 168.529 291.65V247.902C168.529 247.705 168.687 247.547 168.883 247.547Z" fill="white"/>
</mask>
<g mask="url(#mask0_104_60)">
<g filter="url(#filter4_f_104_60)">
<path d="M168.883 247.547H214.797C214.994 247.547 215.151 247.705 215.151 247.902V292.044C215.151 292.241 214.994 292.398 214.797 292.398C199.309 291.591 183.998 291.552 168.883 292.398C168.687 292.398 168.529 292.241 168.529 292.044V247.902C168.529 247.705 168.687 247.547 168.883 247.547Z" stroke="url(#paint10_linear_104_60)" stroke-width="0.7872"/>
</g>
</g>
<path d="M366.106 233.757C366.34 233.992 366.521 234.24 366.656 234.491C366.622 235.395 366.345 235.88 364.854 235.879C364.691 235.766 364.529 235.638 364.377 235.486C363.18 233.92 365.584 235.328 365.259 233.154C365.549 233.292 365.843 233.495 366.106 233.757Z" fill="url(#paint11_radial_104_60)"/>
<path d="M16.7145 233.757C16.4797 233.992 16.2992 234.24 16.1644 234.491C16.1981 235.395 16.4754 235.88 17.9661 235.879C18.1293 235.766 18.291 235.638 18.4429 235.486C19.6398 233.92 17.236 235.328 17.5609 233.154C17.2715 233.292 16.9769 233.495 16.7145 233.757Z" fill="url(#paint12_radial_104_60)"/>
<path d="M376.714 5.44427H6.15731C5.57646 5.44427 5.10559 5.91515 5.10559 6.49599V245.079C5.10559 245.66 5.57646 246.131 6.15731 246.131H376.714C377.295 246.131 377.766 245.66 377.766 245.079V6.49599C377.766 5.91515 377.295 5.44427 376.714 5.44427Z" fill="url(#paint13_linear_104_60)"/>
<path d="M365.497 15.7487H17.375C16.7941 15.7487 16.3232 16.2196 16.3232 16.8004V234.778C16.3232 235.359 16.7941 235.83 17.375 235.83H365.497C366.078 235.83 366.549 235.359 366.549 234.778V16.8004C366.549 16.2196 366.078 15.7487 365.497 15.7487Z" fill="url(#paint14_linear_104_60)"/>
<path d="M377.108 3.67326H5.76374C5.56331 3.67326 5.40082 3.83575 5.40082 4.03618V5.08154C5.40082 5.28198 5.56331 5.44446 5.76374 5.44446H377.108C377.308 5.44446 377.471 5.28198 377.471 5.08154V4.03618C377.471 3.83575 377.308 3.67326 377.108 3.67326Z" fill="url(#paint15_linear_104_60)"/>
<path d="M377.108 246.241H5.76374C5.56331 246.241 5.40082 246.403 5.40082 246.604V247.649C5.40082 247.85 5.56331 248.012 5.76374 248.012H377.108C377.308 248.012 377.471 247.85 377.471 247.649V246.604C377.471 246.403 377.308 246.241 377.108 246.241Z" fill="url(#paint16_linear_104_60)"/>
<path d="M364.182 16.9728H18.6974C18.1166 16.9728 17.6457 17.4437 17.6457 18.0245V233.543C17.6457 234.123 18.1166 234.594 18.6974 234.594H364.182C364.763 234.594 365.234 234.123 365.234 233.543V18.0245C365.234 17.4437 364.763 16.9728 364.182 16.9728Z" fill="url(#paint17_radial_104_60)"/>
<path d="M377.108 246.241H5.76374C5.56331 246.241 5.40082 246.403 5.40082 246.604V247.649C5.40082 247.85 5.56331 248.012 5.76374 248.012H377.108C377.308 248.012 377.471 247.85 377.471 247.649V246.604C377.471 246.403 377.308 246.241 377.108 246.241Z" fill="url(#paint18_linear_104_60)"/>
<path opacity="0.65639" d="M377.108 246.241H5.76374C5.56331 246.241 5.40082 246.403 5.40082 246.604V247.649C5.40082 247.85 5.56331 248.012 5.76374 248.012H377.108C377.308 248.012 377.471 247.85 377.471 247.649V246.604C377.471 246.403 377.308 246.241 377.108 246.241Z" fill="url(#paint19_linear_104_60)"/>
<path d="M138.792 188.035H206.586C208.433 188.035 209.667 186.802 209.667 184.956V158.783C209.667 156.937 208.743 155.087 207.203 153.858L202.27 150.162C199.189 147.699 197.341 144.31 197.341 140.308V132.61H148.037V140.308C148.037 144.31 146.187 147.699 143.106 150.162L138.176 153.858C136.635 155.088 135.711 156.937 135.711 158.783V184.956C135.71 186.802 136.943 188.035 138.792 188.035Z" fill="#ECEFF9"/>
<path d="M207.203 153.858L202.273 150.162C199.192 147.699 197.341 144.31 197.341 140.308V132.61H181.934H178.852H148.037V135.689H174.23C176.696 135.689 178.852 137.845 178.852 140.308C178.852 144.31 180.702 147.699 183.783 150.162L188.713 153.858C190.254 155.088 191.178 156.937 191.178 158.783V184.956C191.178 186.802 189.945 188.035 188.096 188.035H206.586C208.436 188.035 209.667 186.802 209.667 184.956V158.783C209.667 156.937 208.743 155.087 207.203 153.858Z" fill="#97B4D3"/>
<path d="M172.689 114.135C174.39 114.135 175.77 115.511 175.77 117.214C175.77 118.918 174.389 120.293 172.689 120.293C170.989 120.293 169.607 118.918 169.607 117.214C169.607 115.511 170.989 114.135 172.689 114.135Z" fill="#F19A22"/>
<path d="M151.118 101.818C152.819 101.818 154.199 103.194 154.199 104.897C154.199 106.601 152.818 107.977 151.118 107.977C149.418 107.977 148.037 106.601 148.037 104.897C148.037 103.194 149.418 101.818 151.118 101.818Z" fill="#F19A22"/>
<path d="M171.148 101.818C172.072 101.818 172.689 101.202 172.689 100.279V66.4079C172.689 65.4848 172.072 64.8683 171.148 64.8683C170.224 64.8683 169.607 65.4848 169.607 66.4079V100.279C169.607 101.202 170.224 101.818 171.148 101.818Z" fill="#F6B545"/>
<path d="M180.393 95.6597C181.317 95.6597 181.934 95.0433 181.934 94.1202V72.5661C181.934 71.643 181.317 71.0265 180.393 71.0265C179.469 71.0265 178.852 71.643 178.852 72.5661V94.1207C178.852 95.0433 179.469 95.6597 180.393 95.6597Z" fill="#F6B545"/>
<path d="M189.637 89.5015C190.561 89.5015 191.178 88.8851 191.178 87.962V78.7243C191.178 77.8012 190.561 77.1847 189.637 77.1847C188.713 77.1847 188.096 77.8012 188.096 78.7243V87.9615C188.096 88.8851 188.713 89.5015 189.637 89.5015Z" fill="#F6B545"/>
<path d="M152.658 89.5015C153.583 89.5015 154.199 88.8851 154.199 87.962V78.7243C154.199 77.8012 153.583 77.1847 152.658 77.1847C151.735 77.1847 151.118 77.8012 151.118 78.7243V87.9615C151.118 88.8851 151.735 89.5015 152.658 89.5015Z" fill="#F6B545"/>
<path d="M161.904 95.6597C162.828 95.6597 163.444 95.0433 163.444 94.1202V72.5661C163.444 71.643 162.828 71.0265 161.904 71.0265C160.98 71.0265 160.363 71.643 160.363 72.5661V94.1207C160.363 95.0433 160.98 95.6597 161.904 95.6597Z" fill="#F6B545"/>
<path d="M209.667 163.402H135.71V184.956C135.71 186.802 136.943 188.035 138.792 188.035H206.585C208.433 188.035 209.667 186.802 209.667 184.956L209.667 163.402Z" fill="#F6B545"/>
<path d="M160.363 123.373C158.513 123.373 157.281 122.141 157.281 120.293V98.7388C157.281 96.8913 158.514 95.6597 160.363 95.6597C162.212 95.6597 163.444 96.8913 163.444 98.7388V120.293C163.444 122.141 162.212 123.373 160.363 123.373Z" fill="#F19A22"/>
<path d="M185.015 117.214C183.166 117.214 181.934 115.982 181.934 114.135V104.897C181.934 103.049 183.166 101.818 185.015 101.818C186.864 101.818 188.096 103.049 188.096 104.897V114.135C188.096 115.983 186.864 117.214 185.015 117.214Z" fill="#F19A22"/>
<path d="M166.526 138.768C168.226 138.768 169.607 140.145 169.607 141.847C169.607 143.549 168.226 144.926 166.526 144.926C164.825 144.926 163.444 143.549 163.444 141.847C163.444 140.145 164.825 138.768 166.526 138.768Z" fill="#F19A22"/>
<path d="M151.118 178.798C149.269 178.798 148.037 177.565 148.037 175.719V163.402H154.2V175.719C154.2 177.565 152.967 178.798 151.118 178.798Z" fill="#F19A22"/>
<path d="M154.2 157.243H148.037V154.164C148.037 152.318 149.269 151.085 151.118 151.085C152.967 151.085 154.199 152.318 154.199 154.164L154.2 157.243Z" fill="white"/>
<path d="M218.911 86.4225H243.564C245.411 86.4225 246.645 85.1909 246.645 83.3434C246.645 81.4958 245.411 80.2643 243.564 80.2643H218.911C217.064 80.2643 215.83 81.4958 215.83 83.3434C215.83 85.1909 217.064 86.4225 218.911 86.4225Z" fill="#D98B37"/>
<path d="M243.564 74.1056H218.911C214.906 74.1056 211.515 76.5683 210.284 80.2643H197.341V78.7247C197.341 74.4141 193.952 71.0265 189.637 71.0265C189.02 71.0265 188.404 71.0265 188.096 71.335C187.172 67.6394 184.091 64.8683 180.392 64.8683C179.775 64.8683 179.16 64.8683 178.852 65.1768C177.928 61.4808 174.846 58.7097 171.148 58.7097C167.45 58.7097 164.368 61.4808 163.444 65.1763C163.136 64.8679 162.521 64.8679 161.904 64.8679C158.205 64.8679 155.124 67.639 154.2 71.3345C153.891 71.0261 153.276 71.0261 152.659 71.0261C148.345 71.0261 144.955 74.4136 144.955 78.7243V87.9616C144.955 92.2722 148.345 95.6597 152.659 95.6597C153.276 95.6597 153.891 95.6597 154.2 95.3513C154.817 99.0468 157.898 101.818 161.904 101.818C162.521 101.818 163.136 101.818 163.444 101.509C164.061 105.205 167.143 107.976 171.148 107.976C175.153 107.976 177.928 105.205 178.852 101.509C179.469 101.509 180.085 101.818 180.393 101.818C184.091 101.818 187.173 99.0468 188.096 95.3513C188.713 95.3513 189.329 95.6597 189.637 95.6597C193.952 95.6597 197.341 92.2722 197.341 87.9616V86.422H210.284C211.515 90.118 214.906 92.5806 218.911 92.5806H243.564C248.803 92.5806 252.808 88.5785 252.808 83.3429C252.808 78.1074 248.803 74.1056 243.564 74.1056ZM154.2 87.9616C154.2 88.8846 153.583 89.5011 152.659 89.5011C151.735 89.5011 151.119 88.8846 151.119 87.9616V78.7243C151.119 77.8012 151.735 77.1847 152.659 77.1847C153.583 77.1847 154.2 77.8012 154.2 78.7243V87.9616ZM163.444 94.1202C163.444 95.0433 162.828 95.6597 161.904 95.6597C160.98 95.6597 160.363 95.0433 160.363 94.1202V87.9616V78.7243V72.5661C160.363 71.643 160.98 71.0265 161.904 71.0265C162.828 71.0265 163.444 71.643 163.444 72.5661V94.1202ZM172.689 72.5661V94.1206V100.279C172.689 101.202 172.072 101.818 171.148 101.818C170.224 101.818 169.607 101.202 169.607 100.279V94.1202V72.5661V66.4074C169.607 65.4843 170.224 64.8679 171.148 64.8679C172.072 64.8679 172.689 65.4843 172.689 66.4074V72.5661ZM181.934 78.7243V87.9616V94.1202C181.934 95.0433 181.317 95.6597 180.393 95.6597C179.469 95.6597 178.852 95.0433 178.852 94.1202V72.5661C178.852 71.643 179.469 71.0265 180.393 71.0265C181.317 71.0265 181.934 71.643 181.934 72.5661V78.7243ZM191.178 87.9616C191.178 88.8846 190.561 89.5011 189.637 89.5011C188.713 89.5011 188.096 88.8846 188.096 87.9616V78.7243C188.096 77.8012 188.713 77.1847 189.637 77.1847C190.561 77.1847 191.178 77.8012 191.178 78.7243V87.9616ZM243.564 86.4225H218.911C217.064 86.4225 215.83 85.1909 215.83 83.3434C215.83 81.4958 217.064 80.2643 218.911 80.2643H243.564C245.411 80.2643 246.645 81.4958 246.645 83.3434C246.645 85.1909 245.411 86.4225 243.564 86.4225Z" fill="#014463"/>
<path d="M169.607 80.2643V100.279C169.607 101.202 170.224 101.818 171.148 101.818C172.072 101.818 172.688 101.202 172.688 100.279V80.2643H169.607Z" fill="#F19A22"/>
<path d="M178.852 83.3429V94.1202C178.852 95.0433 179.469 95.6597 180.393 95.6597C181.317 95.6597 181.934 95.0433 181.934 94.1202V83.3429H178.852Z" fill="#F19A22"/>
<path d="M160.363 83.3429V94.1202C160.363 95.0433 160.979 95.6597 161.903 95.6597C162.827 95.6597 163.444 95.0433 163.444 94.1202V83.3429H160.363Z" fill="#F19A22"/>
<path d="M188.096 86.4224V87.962C188.096 88.8851 188.713 89.5015 189.637 89.5015C190.561 89.5015 191.178 88.8851 191.178 87.9615V86.422L188.096 86.4224Z" fill="#F19A22"/>
<path d="M151.118 86.4225V87.962C151.118 88.8851 151.735 89.5016 152.658 89.5016C153.583 89.5016 154.199 88.8851 154.199 87.962V86.4225H151.118Z" fill="#F19A22"/>
<path d="M191.178 163.402V178.798C191.178 182.183 188.405 184.956 185.015 184.956H135.71C135.71 186.802 136.943 188.035 138.792 188.035H191.178H206.586C208.433 188.035 209.667 186.802 209.667 184.956V163.402H191.178Z" fill="#F19A22"/>
<path d="M218.911 86.4224H243.564C245.411 86.4224 246.645 85.1909 246.645 83.3434H215.829C215.83 85.1909 217.064 86.4224 218.911 86.4224Z" fill="#C87729"/>
<path d="M215.828 158.783V184.954C215.828 190.192 211.823 194.194 206.585 194.194H138.792C133.553 194.194 129.549 190.192 129.549 184.954V158.783C129.549 154.782 131.398 151.39 134.48 148.928L139.411 145.234C140.952 144.006 141.874 142.154 141.874 140.307V132.612C140.025 132.612 138.792 131.379 138.792 129.532C138.792 127.685 140.025 126.452 141.874 126.452H144.956H200.42H203.502C205.351 126.452 206.585 127.685 206.585 129.532C206.585 131.379 205.351 132.612 203.502 132.612V140.307C203.502 142.154 204.429 144.006 205.97 145.234L210.901 148.928C213.984 151.39 215.828 154.781 215.828 158.783ZM209.667 184.954V163.403L209.36 157.242C209.048 156.01 208.433 154.781 207.204 153.855L202.268 150.161C199.186 147.7 197.342 144.308 197.342 140.307V132.611H188.096H181.935H148.039V140.307C148.039 144.308 146.186 147.7 143.108 150.161L138.177 153.855C136.943 154.781 136.328 156.01 136.021 157.242L135.709 163.403V184.954C135.709 186.801 136.943 188.034 138.792 188.034H206.585C208.434 188.034 209.667 186.801 209.667 184.954Z" fill="url(#paint20_linear_104_60)"/>
<path d="M188.096 132.612V141.847C188.096 143.694 186.866 144.927 185.013 144.927C183.165 144.927 181.935 143.694 181.935 141.847V132.612H188.096Z" fill="#F19A22"/>
<path d="M160.974 157.243H172.047L172.051 157.193C172.254 157.225 172.467 157.243 172.688 157.243H209.361L209.668 163.403H135.709L136.021 157.243H160.363C160.571 157.243 160.775 157.225 160.969 157.197L160.974 157.243Z" fill="#F19A22"/>
<path d="M160.969 157.197C162.479 156.954 163.446 155.797 163.446 154.163V151.083C163.446 149.24 164.675 148.007 166.528 148.007C168.377 148.007 169.606 149.24 169.606 151.083V154.163C169.606 155.788 170.564 156.94 172.051 157.193L172.047 157.242H160.974L160.969 157.197Z" fill="#F19A22"/>
<defs>
<filter id="filter0_f_104_60" x="86.4171" y="294.635" width="105.211" height="15.1114" filterUnits="userSpaceOnUse" color-interpolation-filters="sRGB">
<feFlood flood-opacity="0" result="BackgroundImageFix"/>
<feBlend mode="normal" in="SourceGraphic" in2="BackgroundImageFix" result="shape"/>
<feGaussianBlur stdDeviation="0.175686" result="effect1_foregroundBlur_104_60"/>
</filter>
<filter id="filter1_f_104_60" x="86.1437" y="294.733" width="105.801" height="14.9074" filterUnits="userSpaceOnUse" color-interpolation-filters="sRGB">
<feFlood flood-opacity="0" result="BackgroundImageFix"/>
<feBlend mode="normal" in="SourceGraphic" in2="BackgroundImageFix" result="shape"/>
<feGaussianBlur stdDeviation="0.117124" result="effect1_foregroundBlur_104_60"/>
</filter>
<filter id="filter2_f_104_60" x="191.161" y="294.635" width="105.211" height="15.1114" filterUnits="userSpaceOnUse" color-interpolation-filters="sRGB">
<feFlood flood-opacity="0" result="BackgroundImageFix"/>
<feBlend mode="normal" in="SourceGraphic" in2="BackgroundImageFix" result="shape"/>
<feGaussianBlur stdDeviation="0.175686" result="effect1_foregroundBlur_104_60"/>
</filter>
<filter id="filter3_f_104_60" x="190.844" y="294.733" width="105.801" height="14.9074" filterUnits="userSpaceOnUse" color-interpolation-filters="sRGB">
<feFlood flood-opacity="0" result="BackgroundImageFix"/>
<feBlend mode="normal" in="SourceGraphic" in2="BackgroundImageFix" result="shape"/>
<feGaussianBlur stdDeviation="0.117124" result="effect1_foregroundBlur_104_60"/>
</filter>
<filter id="filter4_f_104_60" x="167.94" y="246.958" width="47.8001" height="46.0289" filterUnits="userSpaceOnUse" color-interpolation-filters="sRGB">
<feFlood flood-opacity="0" result="BackgroundImageFix"/>
<feBlend mode="normal" in="SourceGraphic" in2="BackgroundImageFix" result="shape"/>
<feGaussianBlur stdDeviation="0.0977486" result="effect1_foregroundBlur_104_60"/>
</filter>
<linearGradient id="paint0_linear_104_60" x1="156.412" y1="300.648" x2="232.24" y2="300.982" gradientUnits="userSpaceOnUse">
<stop stop-color="#16191E"/>
<stop offset="0.16349" stop-color="#3A3D43"/>
<stop offset="0.23888" stop-color="#16191E"/>
<stop offset="0.46134" stop-color="#4A4F56"/>
<stop offset="0.66194" stop-color="#16191E"/>
<stop offset="0.75" stop-color="#36393F"/>
<stop offset="1" stop-color="#16191E"/>
</linearGradient>
<linearGradient id="paint1_linear_104_60" x1="61.0362" y1="297.951" x2="322.12" y2="297.951" gradientUnits="userSpaceOnUse">
<stop/>
<stop offset="1" stop-opacity="0"/>
</linearGradient>
<linearGradient id="paint2_linear_104_60" x1="75.0632" y1="306.646" x2="77.0509" y2="297.948" gradientUnits="userSpaceOnUse">
<stop stop-color="#53555A"/>
<stop offset="1" stop-color="#E7E8EC"/>
</linearGradient>
<linearGradient id="paint3_linear_104_60" x1="189.311" y1="297.475" x2="86.7589" y2="297.475" gradientUnits="userSpaceOnUse">
<stop stop-color="#9C9EAA"/>
<stop offset="0.16567" stop-color="#32373B"/>
<stop offset="0.20498" stop-color="#9C9EA9"/>
<stop offset="0.23579" stop-color="#363B3F"/>
<stop offset="0.74124" stop-color="#515257"/>
<stop offset="1" stop-color="#4A4F53"/>
</linearGradient>
<linearGradient id="paint4_linear_104_60" x1="307.726" y1="306.646" x2="305.738" y2="297.948" gradientUnits="userSpaceOnUse">
<stop stop-color="#53555A"/>
<stop offset="1" stop-color="#E7E8EC"/>
</linearGradient>
<linearGradient id="paint5_linear_104_60" x1="193.478" y1="297.475" x2="296.03" y2="297.475" gradientUnits="userSpaceOnUse">
<stop stop-color="#9C9EAA"/>
<stop offset="0.16567" stop-color="#32373B"/>
<stop offset="0.20498" stop-color="#868896"/>
<stop offset="0.23579" stop-color="#363B3F"/>
<stop offset="0.74124" stop-color="#515257"/>
<stop offset="1" stop-color="#4A4F53"/>
</linearGradient>
<linearGradient id="paint6_linear_104_60" x1="195.089" y1="296.055" x2="195.089" y2="290.28" gradientUnits="userSpaceOnUse">
<stop stop-color="#B5B7BB"/>
<stop offset="1" stop-color="#E5E6EA"/>
</linearGradient>
<linearGradient id="paint7_linear_104_60" x1="189.969" y1="295.854" x2="189.969" y2="290.717" gradientUnits="userSpaceOnUse">
<stop stop-color="#888B95"/>
<stop offset="1" stop-color="#F0F1F5"/>
</linearGradient>
<linearGradient id="paint8_linear_104_60" x1="198.62" y1="291.674" x2="198.62" y2="296.102" gradientUnits="userSpaceOnUse">
<stop stop-color="#979AA4"/>
<stop offset="1" stop-color="#979AA4" stop-opacity="0"/>
</linearGradient>
<linearGradient id="paint9_linear_104_60" x1="172.662" y1="276.064" x2="173.193" y2="237.117" gradientUnits="userSpaceOnUse">
<stop stop-color="#979AA4"/>
<stop offset="1" stop-color="#50525A"/>
</linearGradient>
<linearGradient id="paint10_linear_104_60" x1="178.231" y1="291.985" x2="178.231" y2="268.861" gradientUnits="userSpaceOnUse">
<stop stop-color="#4C5059"/>
<stop offset="1" stop-color="#818590"/>
</linearGradient>
<radialGradient id="paint11_radial_104_60" cx="0" cy="0" r="1" gradientUnits="userSpaceOnUse" gradientTransform="translate(365.243 234.619) rotate(-45) scale(1.22069 2.01412)">
<stop stop-color="#CCCCCC"/>
<stop offset="1" stop-color="#C1C1C1" stop-opacity="0"/>
</radialGradient>
<radialGradient id="paint12_radial_104_60" cx="0" cy="0" r="1" gradientUnits="userSpaceOnUse" gradientTransform="translate(17.5766 234.619) rotate(-135) scale(1.22069 2.01412)">
<stop stop-color="#CCCCCC"/>
<stop offset="1" stop-color="#C1C1C1" stop-opacity="0"/>
</radialGradient>
<linearGradient id="paint13_linear_104_60" x1="97.9991" y1="243.297" x2="97.9991" y2="5.29294" gradientUnits="userSpaceOnUse">
<stop stop-color="#1D2025"/>
<stop offset="1" stop-color="#31343B"/>
</linearGradient>
<linearGradient id="paint14_linear_104_60" x1="193.105" y1="235.149" x2="193.105" y2="15.5088" gradientUnits="userSpaceOnUse">
<stop stop-color="#5E6169"/>
<stop offset="1" stop-color="#1C2125"/>
</linearGradient>
<linearGradient id="paint15_linear_104_60" x1="8.24064" y1="4.63955" x2="184.642" y2="4.63955" gradientUnits="userSpaceOnUse">
<stop stop-color="#ABAFB8"/>
<stop offset="1" stop-color="#BEBDC5"/>
</linearGradient>
<linearGradient id="paint16_linear_104_60" x1="6.17424" y1="247.207" x2="184.642" y2="247.207" gradientUnits="userSpaceOnUse">
<stop stop-color="#8F919D"/>
<stop offset="1" stop-color="#878A95"/>
</linearGradient>
<radialGradient id="paint17_radial_104_60" cx="0" cy="0" r="1" gradientUnits="userSpaceOnUse" gradientTransform="translate(191.432 16.9686) rotate(90) scale(187.141 209.399)">
<stop stop-color="#3A3B3E"/>
<stop offset="0.619792" stop-color="#232528"/>
<stop offset="1" stop-color="#15181B"/>
</radialGradient>
<linearGradient id="paint18_linear_104_60" x1="195.584" y1="248.105" x2="195.584" y2="246.924" gradientUnits="userSpaceOnUse">
<stop stop-color="#575A62" stop-opacity="0.99967"/>
<stop offset="1" stop-color="#878A95" stop-opacity="0"/>
</linearGradient>
<linearGradient id="paint19_linear_104_60" x1="195.584" y1="248.012" x2="195.584" y2="246.239" gradientUnits="userSpaceOnUse">
<stop stop-color="#6B6F7A" stop-opacity="0"/>
<stop offset="1" stop-color="#EBEBED"/>
</linearGradient>
<linearGradient id="paint20_linear_104_60" x1="172.688" y1="194.194" x2="172.688" y2="149.934" gradientUnits="userSpaceOnUse">
<stop stop-color="#FFA600"/>
<stop offset="1" stop-color="#FF7200"/>
</linearGradient>
</defs>
</svg>
