<svg width="383" height="314" viewBox="0 0 383 314" fill="none" xmlns="http://www.w3.org/2000/svg">
<path fill-rule="evenodd" clip-rule="evenodd" d="M322.031 303.455L295.928 309.333H293.536L217.971 301.765C215.578 301.707 213.078 301.521 210.657 301.795C200.735 302.918 183.157 303.005 172.327 301.697L164.74 301.765L87.5052 309.265H85.347L61.1386 303.767L64.9667 299.246C66.6463 297.254 69.0681 296.609 72.3395 296.316L161.468 288.455C162.982 288.328 164.359 287.596 165.58 286.58H186.243H221.379C222.649 287.693 224.201 288.484 226.32 288.67L308.887 295.935C313.311 296.326 316.543 296.658 318.965 299.656L322.031 303.455Z" fill="url(#paint0_linear_104_60)" stroke="url(#paint1_linear_104_60)" stroke-width="0.196802"/>
<path fill-rule="evenodd" clip-rule="evenodd" d="M60.7755 303.045L86.8712 309.323H89.2722C91.8896 304.796 95.3336 303.753 100.214 303.301L164.824 297.436C167.205 297.2 169.724 297.18 172.145 297.456C176.691 297.968 185.311 298.302 191.667 298.341L191.687 286.179H161.419C160.16 287.301 158.605 288.088 156.479 288.265L73.9021 295.547C69.4938 295.921 66.2662 296.255 63.8259 299.266L60.7755 303.045Z" fill="url(#paint2_linear_104_60)"/>
<path fill-rule="evenodd" clip-rule="evenodd" d="M86.8319 309.343H89.3509C91.9683 304.796 95.3139 304.147 100.214 303.694L164.804 297.83C167.185 297.613 169.704 297.574 172.125 297.849C176.671 298.361 185.842 298.617 191.648 298.735V296.216L173.837 295.606C170.649 295.488 167.087 294.917 164.548 295.134L99.0334 300.86C94.6251 301.234 90.9253 302.887 88.8589 306.154L86.8319 309.343Z" fill="url(#paint3_linear_104_60)"/>
<g filter="url(#filter0_f_104_60)">
<path d="M191.274 296.216L173.857 295.606C170.669 295.488 167.107 294.917 164.568 295.134L99.0531 300.86C94.6251 301.234 90.9449 302.887 88.8785 306.154L86.8515 309.343" stroke="white" stroke-width="0.1968"/>
</g>
<g filter="url(#filter1_f_104_60)">
<path d="M191.707 296.216L173.483 295.606C170.314 295.488 166.752 294.917 164.214 295.134L98.6989 300.86C94.2709 301.234 90.5907 302.887 88.5046 306.154L86.4776 309.343" stroke="white" stroke-width="0.23616"/>
</g>
<path fill-rule="evenodd" clip-rule="evenodd" d="M322.014 303.045L295.918 309.323H293.517C290.899 304.796 287.455 303.753 282.575 303.301L217.965 297.436C215.584 297.2 213.065 297.18 210.644 297.456C206.098 297.968 197.478 298.302 191.122 298.341L191.102 286.179H221.37C222.63 287.301 224.184 288.088 226.31 288.265L308.887 295.547C313.295 295.921 316.523 296.255 318.963 299.266L322.014 303.045Z" fill="url(#paint4_linear_104_60)"/>
<path fill-rule="evenodd" clip-rule="evenodd" d="M295.957 309.343H293.438C290.821 304.796 287.475 304.147 282.575 303.694L217.985 297.83C215.604 297.613 213.085 297.574 210.664 297.849C206.118 298.361 196.947 298.617 191.141 298.735V296.216L208.952 295.606C212.14 295.488 215.702 294.917 218.241 295.134L283.756 300.86C288.164 301.234 291.864 302.887 293.93 306.154L295.957 309.343Z" fill="url(#paint5_linear_104_60)"/>
<g filter="url(#filter2_f_104_60)">
<path d="M191.515 296.216L208.932 295.606C212.12 295.488 215.682 294.917 218.221 295.134L283.736 300.86C288.164 301.234 291.844 302.887 293.91 306.154L295.937 309.343" stroke="white" stroke-width="0.1968"/>
</g>
<g filter="url(#filter3_f_104_60)">
<path d="M191.082 296.216L209.306 295.606C212.475 295.488 216.037 294.917 218.575 295.134L284.09 300.86C288.518 301.234 292.198 302.887 294.284 306.154L296.311 309.343" stroke="white" stroke-width="0.23616"/>
</g>
<path d="M217.99 291.853C217.99 293.611 206.536 295.037 192.395 295.037C178.255 295.037 166.8 293.611 166.8 291.853C166.8 290.086 178.255 288.66 192.395 288.66C206.536 288.66 217.99 290.086 217.99 291.853Z" fill="url(#paint6_linear_104_60)" stroke="url(#paint7_linear_104_60)" stroke-width="0.196802"/>
<path d="M168.883 290.883H214.797C214.994 290.883 215.151 291.04 215.151 291.237V299.424C215.151 299.64 168.529 295.901 168.529 299.424V291.237C168.529 291.04 168.687 290.883 168.883 290.883Z" fill="url(#paint8_linear_104_60)"/>
<path d="M168.883 247.547H214.797C214.994 247.547 215.151 247.705 215.151 247.902V291.65C215.151 291.847 214.994 292.004 214.797 292.004C199.525 291.139 184.175 291.296 168.883 292.004C168.687 292.004 168.529 291.847 168.529 291.65V247.902C168.529 247.705 168.687 247.547 168.883 247.547Z" fill="url(#paint9_linear_104_60)"/>
<mask id="mask0_104_60" style="mask-type:luminance" maskUnits="userSpaceOnUse" x="168" y="247" width="48" height="46">
<path d="M168.883 247.547H214.797C214.994 247.547 215.151 247.705 215.151 247.902V291.65C215.151 291.847 214.994 292.004 214.797 292.004C199.525 291.139 184.175 291.296 168.883 292.004C168.687 292.004 168.529 291.847 168.529 291.65V247.902C168.529 247.705 168.687 247.547 168.883 247.547Z" fill="white"/>
</mask>
<g mask="url(#mask0_104_60)">
<g filter="url(#filter4_f_104_60)">
<path d="M168.883 247.547H214.797C214.994 247.547 215.151 247.705 215.151 247.902V292.044C215.151 292.241 214.994 292.398 214.797 292.398C199.309 291.591 183.998 291.552 168.883 292.398C168.687 292.398 168.529 292.241 168.529 292.044V247.902C168.529 247.705 168.687 247.547 168.883 247.547Z" stroke="url(#paint10_linear_104_60)" stroke-width="0.7872"/>
</g>
</g>
<path d="M366.106 233.757C366.34 233.992 366.521 234.24 366.656 234.491C366.622 235.395 366.345 235.88 364.854 235.879C364.691 235.766 364.529 235.638 364.377 235.486C363.18 233.92 365.584 235.328 365.259 233.154C365.549 233.292 365.843 233.495 366.106 233.757Z" fill="url(#paint11_radial_104_60)"/>
<path d="M16.7145 233.757C16.4797 233.992 16.2992 234.24 16.1644 234.491C16.1981 235.395 16.4754 235.88 17.9661 235.879C18.1293 235.766 18.291 235.638 18.4429 235.486C19.6398 233.92 17.236 235.328 17.5609 233.154C17.2715 233.292 16.9769 233.495 16.7145 233.757Z" fill="url(#paint12_radial_104_60)"/>
<path d="M376.714 5.44427H6.15731C5.57646 5.44427 5.10559 5.91515 5.10559 6.49599V245.079C5.10559 245.66 5.57646 246.131 6.15731 246.131H376.714C377.295 246.131 377.766 245.66 377.766 245.079V6.49599C377.766 5.91515 377.295 5.44427 376.714 5.44427Z" fill="url(#paint13_linear_104_60)"/>
<path d="M365.497 15.7487H17.375C16.7941 15.7487 16.3232 16.2196 16.3232 16.8004V234.778C16.3232 235.359 16.7941 235.83 17.375 235.83H365.497C366.078 235.83 366.549 235.359 366.549 234.778V16.8004C366.549 16.2196 366.078 15.7487 365.497 15.7487Z" fill="url(#paint14_linear_104_60)"/>
<path d="M377.108 3.67326H5.76374C5.56331 3.67326 5.40082 3.83575 5.40082 4.03618V5.08154C5.40082 5.28198 5.56331 5.44446 5.76374 5.44446H377.108C377.308 5.44446 377.471 5.28198 377.471 5.08154V4.03618C377.471 3.83575 377.308 3.67326 377.108 3.67326Z" fill="url(#paint15_linear_104_60)"/>
<path d="M377.108 246.241H5.76374C5.56331 246.241 5.40082 246.403 5.40082 246.604V247.649C5.40082 247.85 5.56331 248.012 5.76374 248.012H377.108C377.308 248.012 377.471 247.85 377.471 247.649V246.604C377.471 246.403 377.308 246.241 377.108 246.241Z" fill="url(#paint16_linear_104_60)"/>
<path d="M364.182 16.9728H18.6974C18.1166 16.9728 17.6457 17.4437 17.6457 18.0245V233.543C17.6457 234.123 18.1166 234.594 18.6974 234.594H364.182C364.763 234.594 365.234 234.123 365.234 233.543V18.0245C365.234 17.4437 364.763 16.9728 364.182 16.9728Z" fill="url(#paint17_radial_104_60)"/>
<path d="M377.108 246.241H5.76374C5.56331 246.241 5.40082 246.403 5.40082 246.604V247.649C5.40082 247.85 5.56331 248.012 5.76374 248.012H377.108C377.308 248.012 377.471 247.85 377.471 247.649V246.604C377.471 246.403 377.308 246.241 377.108 246.241Z" fill="url(#paint18_linear_104_60)"/>
<path opacity="0.65639" d="M377.108 246.241H5.76374C5.56331 246.241 5.40082 246.403 5.40082 246.604V247.649C5.40082 247.85 5.56331 248.012 5.76374 248.012H377.108C377.308 248.012 377.471 247.85 377.471 247.649V246.604C377.471 246.403 377.308 246.241 377.108 246.241Z" fill="url(#paint19_linear_104_60)"/>
<g clip-path="url(#clip0_104_60)">
<path d="M238.314 112.077C225.039 93.9828 236.842 80.6605 236.842 80.6605L190.642 80.6877L144.428 80.6605C144.428 80.6605 156.069 93.9692 142.808 112.063C130.653 128.621 145.104 168.044 147.737 174.61C145.428 181.991 166.941 188 190.642 188C214.329 188 233.493 182.984 232.831 174.61C235.437 168.057 250.455 128.634 238.314 112.077Z" fill="#A45A0E"/>
<path d="M237.922 160.377C241.596 147.952 245.12 130.837 241.406 119.01C207.82 129.98 174.949 129.98 139.688 119.01C135.974 130.837 139.513 147.965 143.172 160.377C176.691 172.027 205.551 171.714 237.922 160.377Z" fill="#EC8E25"/>
<path opacity="0.41" d="M238.314 112.077C225.039 93.9828 236.842 80.6605 236.842 80.6605L225.376 80.6741C225.079 81.0139 213.749 94.2275 226.848 112.077C239.003 128.634 223.972 168.057 221.352 174.623C221.973 182.29 205.983 187.13 185.118 187.905C186.941 187.973 188.778 188.014 190.628 188.014C214.316 188.014 233.479 182.997 232.817 174.623C235.437 168.057 250.455 128.634 238.314 112.077Z" fill="#A45A0E"/>
<path opacity="0.22" d="M232.007 94.5945C232.021 89.2792 233.844 85.1873 235.248 82.8084C234.641 82.0199 233.884 81.2586 232.979 80.5245L190.642 80.5517L148.264 80.5245C147.359 81.2586 146.589 82.0335 145.995 82.822C147.372 85.1873 149.141 89.252 149.155 94.5265C156.718 99.9914 172.451 103.743 190.628 103.743C208.738 103.743 224.404 100.019 232.007 94.5945Z" fill="#EC8E25"/>
<path d="M190.628 97.2182C216.174 97.2182 236.882 90.2189 236.882 81.5849C236.882 72.9509 216.174 65.9516 190.628 65.9516C165.083 65.9516 144.374 72.9509 144.374 81.5849C144.374 90.2189 165.083 97.2182 190.628 97.2182Z" fill="#A45A0E"/>
<path opacity="0.41" d="M190.885 91.2503C212.298 91.2503 229.657 85.9735 229.657 79.4642C229.657 72.9549 212.298 67.678 190.885 67.678C169.472 67.678 152.113 72.9549 152.113 79.4642C152.113 85.9735 169.472 91.2503 190.885 91.2503Z" fill="#A45A0E"/>
<path opacity="0.41" d="M149.506 175.412C149.506 175.412 181.553 192.649 220.339 179.544C220.339 179.544 189.129 190.338 149.506 175.412Z" fill="#A45A0E"/>
<path opacity="0.22" d="M150.803 178.158C150.803 178.158 161.35 186.668 180.608 185.743C180.608 185.743 158.554 184.452 150.803 178.158Z" fill="white"/>
<path opacity="0.41" d="M194.18 66.1283C211.696 68.3578 224.147 74.0673 224.147 80.7692C224.147 89.4015 203.431 96.4025 177.893 96.4025C176.691 96.4025 175.516 96.3889 174.341 96.3617C179.406 97.0007 184.902 97.3541 190.628 97.3541C216.179 97.3541 236.882 90.3531 236.882 81.7208C236.882 73.4964 218.07 66.7401 194.18 66.1283Z" fill="#A45A0E"/>
<path d="M226.092 146.592C226.092 143.887 224.417 141.685 222.702 141.685C220.987 141.685 220.325 143.873 220.325 146.592C220.325 149.297 221.001 151.5 222.702 151.5C224.417 151.486 226.092 149.297 226.092 146.592Z" fill="#FFB733"/>
<path d="M225.633 160.662C224.606 160.662 224.215 161.967 224.215 163.585C224.215 165.203 224.62 166.508 225.633 166.508C226.659 166.508 227.645 165.203 227.645 163.585C227.645 161.967 226.646 160.662 225.633 160.662Z" fill="#FFB733"/>
<path d="M225.808 121.579C225.808 113.3 220.028 117.283 219.61 105.212C219.421 99.5428 219.569 94.2682 220.474 93.5613C222.662 91.8485 223.85 87.6207 222 84.7659C224.728 83.1482 226.281 81.2858 226.281 79.3147C226.281 72.9934 210.318 65 190.628 65C170.938 65 154.962 72.9934 154.962 79.3283C154.962 85.6631 170.925 90.7881 190.628 90.7881C201.081 90.7881 210.48 89.3472 217.003 87.0361C218.408 88.1373 219.65 89.4967 219.448 90.7881C219.299 91.6989 217.962 94.3362 217.962 94.3362C217.476 97.5852 217.881 102.221 218.448 106.884C219.299 113.776 219.488 120.682 219.461 126.187C219.448 131.693 225.808 132.046 225.808 121.579Z" fill="#FFB733"/>
<path opacity="0.53" d="M172.599 69.3229C172.599 69.3229 162.97 70.5872 159.203 75.1956C156.218 78.8389 156.191 82.7812 166.414 84.6164C166.414 84.6164 160.634 80.5245 163.983 75.9977C167.805 70.8319 172.599 69.3229 172.599 69.3229Z" fill="white"/>
<path opacity="0.42" d="M223.134 115.706C223.134 115.706 224.498 117.079 224.931 118.316C225.363 119.54 225.579 122.449 224.863 121.457C224.147 120.464 223.85 116.631 223.134 115.706Z" fill="white"/>
<path opacity="0.42" d="M224.215 143.112C224.215 143.112 226.065 145.355 225.336 147.299L224.215 143.112Z" fill="white"/>
<path opacity="0.42" d="M227.145 164.156L226.065 160.893C226.078 160.893 227.861 162.647 227.145 164.156Z" fill="white"/>
<path opacity="0.53" d="M170.668 85.7583C170.749 85.3369 170.074 85.1194 169.129 84.9019C168.197 84.6844 167.359 84.5348 167.278 84.9698C167.197 85.3912 167.873 85.6088 168.818 85.8263C169.75 86.0438 170.587 86.1797 170.668 85.7583Z" fill="white"/>
<path opacity="0.42" d="M225.43 123.033C225.43 122.558 225.295 122.163 225.12 122.163C224.944 122.163 224.809 122.558 224.809 123.033C224.809 123.509 224.944 123.904 225.12 123.904C225.295 123.904 225.43 123.523 225.43 123.033Z" fill="white"/>
<g opacity="0.45">
<path d="M225.255 149.746C224.674 150.358 223.985 150.725 223.296 150.725C221.581 150.725 220.92 148.536 220.92 145.817C220.92 144.336 221.122 143.003 221.581 142.106C220.703 142.867 220.339 144.594 220.339 146.579C220.339 149.284 221.014 151.486 222.716 151.486C223.661 151.486 224.606 150.806 225.255 149.746Z" fill="#FFB733"/>
<path d="M224.782 162.81C224.782 162.035 224.877 161.328 225.079 160.798C224.458 161.192 224.201 162.28 224.201 163.571C224.201 165.189 224.606 166.494 225.619 166.494C226.241 166.494 226.848 166.005 227.226 165.271C226.916 165.556 226.551 165.733 226.187 165.733C225.187 165.746 224.782 164.428 224.782 162.81Z" fill="#FFB733"/>
<path d="M224.39 128.294C222.527 130.293 220.028 128.865 220.042 125.412C220.069 119.893 219.88 113.001 219.029 106.109C218.448 101.46 218.043 96.8103 218.543 93.5613C218.543 93.5613 219.88 90.9377 220.028 90.0133C220.231 88.7218 218.988 87.3624 217.584 86.2613C211.061 88.5723 201.648 90.0133 191.195 90.0133C171.505 90.0133 155.529 84.8883 155.529 78.5534C155.529 77.5746 155.907 76.5414 156.623 75.4947C155.543 76.8133 154.962 78.1184 154.962 79.3283C154.962 85.6495 170.925 90.7881 190.628 90.7881C201.081 90.7881 210.48 89.3472 217.003 87.0361C218.408 88.1373 219.65 89.4967 219.448 90.7881C219.299 91.6989 217.962 94.3362 217.962 94.3362C217.476 97.5852 217.881 102.221 218.448 106.884C219.299 113.776 219.488 120.682 219.461 126.187C219.461 130.007 222.527 131.353 224.39 128.294Z" fill="#FFB733"/>
</g>
<path opacity="0.22" d="M154.003 89.1161C154.003 89.1161 176.556 97.2182 207.212 94.1595C207.212 94.1595 175.651 100.725 154.003 89.1161Z" fill="white"/>
<path opacity="0.56" d="M212.358 70.0706C212.358 70.0706 222.729 73.5643 223.215 77.629C223.702 81.6936 216.936 85.3641 217.786 83.3249C218.637 81.2858 223.945 74.4344 212.358 70.0706Z" fill="#FFB733"/>
<path opacity="0.56" d="M213.708 85.7719C213.708 85.7719 196.949 91.7805 178.933 87.4168C178.933 87.4032 197.502 90.3123 213.708 85.7719Z" fill="#FFB733"/>
<path opacity="0.13" d="M146.265 110.405C146.265 110.405 142.997 113.463 140.498 121.117C137.446 130.483 141.741 155.945 148.831 168.452C148.831 168.452 137.298 132.821 144.361 123.904C151.424 114.986 170.682 119.88 168.967 117.433C167.265 114.986 149.506 117.976 146.265 110.405Z" fill="white"/>
</g>
<defs>
<filter id="filter0_f_104_60" x="86.4171" y="294.635" width="105.211" height="15.1114" filterUnits="userSpaceOnUse" color-interpolation-filters="sRGB">
<feFlood flood-opacity="0" result="BackgroundImageFix"/>
<feBlend mode="normal" in="SourceGraphic" in2="BackgroundImageFix" result="shape"/>
<feGaussianBlur stdDeviation="0.175686" result="effect1_foregroundBlur_104_60"/>
</filter>
<filter id="filter1_f_104_60" x="86.1437" y="294.733" width="105.801" height="14.9074" filterUnits="userSpaceOnUse" color-interpolation-filters="sRGB">
<feFlood flood-opacity="0" result="BackgroundImageFix"/>
<feBlend mode="normal" in="SourceGraphic" in2="BackgroundImageFix" result="shape"/>
<feGaussianBlur stdDeviation="0.117124" result="effect1_foregroundBlur_104_60"/>
</filter>
<filter id="filter2_f_104_60" x="191.161" y="294.635" width="105.211" height="15.1114" filterUnits="userSpaceOnUse" color-interpolation-filters="sRGB">
<feFlood flood-opacity="0" result="BackgroundImageFix"/>
<feBlend mode="normal" in="SourceGraphic" in2="BackgroundImageFix" result="shape"/>
<feGaussianBlur stdDeviation="0.175686" result="effect1_foregroundBlur_104_60"/>
</filter>
<filter id="filter3_f_104_60" x="190.844" y="294.733" width="105.801" height="14.9074" filterUnits="userSpaceOnUse" color-interpolation-filters="sRGB">
<feFlood flood-opacity="0" result="BackgroundImageFix"/>
<feBlend mode="normal" in="SourceGraphic" in2="BackgroundImageFix" result="shape"/>
<feGaussianBlur stdDeviation="0.117124" result="effect1_foregroundBlur_104_60"/>
</filter>
<filter id="filter4_f_104_60" x="167.94" y="246.958" width="47.8001" height="46.0289" filterUnits="userSpaceOnUse" color-interpolation-filters="sRGB">
<feFlood flood-opacity="0" result="BackgroundImageFix"/>
<feBlend mode="normal" in="SourceGraphic" in2="BackgroundImageFix" result="shape"/>
<feGaussianBlur stdDeviation="0.0977486" result="effect1_foregroundBlur_104_60"/>
</filter>
<linearGradient id="paint0_linear_104_60" x1="156.412" y1="300.648" x2="232.24" y2="300.982" gradientUnits="userSpaceOnUse">
<stop stop-color="#16191E"/>
<stop offset="0.16349" stop-color="#3A3D43"/>
<stop offset="0.23888" stop-color="#16191E"/>
<stop offset="0.46134" stop-color="#4A4F56"/>
<stop offset="0.66194" stop-color="#16191E"/>
<stop offset="0.75" stop-color="#36393F"/>
<stop offset="1" stop-color="#16191E"/>
</linearGradient>
<linearGradient id="paint1_linear_104_60" x1="61.0362" y1="297.951" x2="322.12" y2="297.951" gradientUnits="userSpaceOnUse">
<stop/>
<stop offset="1" stop-opacity="0"/>
</linearGradient>
<linearGradient id="paint2_linear_104_60" x1="75.0632" y1="306.646" x2="77.0509" y2="297.948" gradientUnits="userSpaceOnUse">
<stop stop-color="#53555A"/>
<stop offset="1" stop-color="#E7E8EC"/>
</linearGradient>
<linearGradient id="paint3_linear_104_60" x1="189.311" y1="297.475" x2="86.7589" y2="297.475" gradientUnits="userSpaceOnUse">
<stop stop-color="#9C9EAA"/>
<stop offset="0.16567" stop-color="#32373B"/>
<stop offset="0.20498" stop-color="#9C9EA9"/>
<stop offset="0.23579" stop-color="#363B3F"/>
<stop offset="0.74124" stop-color="#515257"/>
<stop offset="1" stop-color="#4A4F53"/>
</linearGradient>
<linearGradient id="paint4_linear_104_60" x1="307.726" y1="306.646" x2="305.738" y2="297.948" gradientUnits="userSpaceOnUse">
<stop stop-color="#53555A"/>
<stop offset="1" stop-color="#E7E8EC"/>
</linearGradient>
<linearGradient id="paint5_linear_104_60" x1="193.478" y1="297.475" x2="296.03" y2="297.475" gradientUnits="userSpaceOnUse">
<stop stop-color="#9C9EAA"/>
<stop offset="0.16567" stop-color="#32373B"/>
<stop offset="0.20498" stop-color="#868896"/>
<stop offset="0.23579" stop-color="#363B3F"/>
<stop offset="0.74124" stop-color="#515257"/>
<stop offset="1" stop-color="#4A4F53"/>
</linearGradient>
<linearGradient id="paint6_linear_104_60" x1="195.089" y1="296.055" x2="195.089" y2="290.28" gradientUnits="userSpaceOnUse">
<stop stop-color="#B5B7BB"/>
<stop offset="1" stop-color="#E5E6EA"/>
</linearGradient>
<linearGradient id="paint7_linear_104_60" x1="189.969" y1="295.854" x2="189.969" y2="290.717" gradientUnits="userSpaceOnUse">
<stop stop-color="#888B95"/>
<stop offset="1" stop-color="#F0F1F5"/>
</linearGradient>
<linearGradient id="paint8_linear_104_60" x1="198.62" y1="291.674" x2="198.62" y2="296.102" gradientUnits="userSpaceOnUse">
<stop stop-color="#979AA4"/>
<stop offset="1" stop-color="#979AA4" stop-opacity="0"/>
</linearGradient>
<linearGradient id="paint9_linear_104_60" x1="172.662" y1="276.064" x2="173.193" y2="237.117" gradientUnits="userSpaceOnUse">
<stop stop-color="#979AA4"/>
<stop offset="1" stop-color="#50525A"/>
</linearGradient>
<linearGradient id="paint10_linear_104_60" x1="178.231" y1="291.985" x2="178.231" y2="268.861" gradientUnits="userSpaceOnUse">
<stop stop-color="#4C5059"/>
<stop offset="1" stop-color="#818590"/>
</linearGradient>
<radialGradient id="paint11_radial_104_60" cx="0" cy="0" r="1" gradientUnits="userSpaceOnUse" gradientTransform="translate(365.243 234.619) rotate(-45) scale(1.22069 2.01412)">
<stop stop-color="#CCCCCC"/>
<stop offset="1" stop-color="#C1C1C1" stop-opacity="0"/>
</radialGradient>
<radialGradient id="paint12_radial_104_60" cx="0" cy="0" r="1" gradientUnits="userSpaceOnUse" gradientTransform="translate(17.5766 234.619) rotate(-135) scale(1.22069 2.01412)">
<stop stop-color="#CCCCCC"/>
<stop offset="1" stop-color="#C1C1C1" stop-opacity="0"/>
</radialGradient>
<linearGradient id="paint13_linear_104_60" x1="97.9991" y1="243.297" x2="97.9991" y2="5.29294" gradientUnits="userSpaceOnUse">
<stop stop-color="#1D2025"/>
<stop offset="1" stop-color="#31343B"/>
</linearGradient>
<linearGradient id="paint14_linear_104_60" x1="193.105" y1="235.149" x2="193.105" y2="15.5088" gradientUnits="userSpaceOnUse">
<stop stop-color="#5E6169"/>
<stop offset="1" stop-color="#1C2125"/>
</linearGradient>
<linearGradient id="paint15_linear_104_60" x1="8.24064" y1="4.63955" x2="184.642" y2="4.63955" gradientUnits="userSpaceOnUse">
<stop stop-color="#ABAFB8"/>
<stop offset="1" stop-color="#BEBDC5"/>
</linearGradient>
<linearGradient id="paint16_linear_104_60" x1="6.17424" y1="247.207" x2="184.642" y2="247.207" gradientUnits="userSpaceOnUse">
<stop stop-color="#8F919D"/>
<stop offset="1" stop-color="#878A95"/>
</linearGradient>
<radialGradient id="paint17_radial_104_60" cx="0" cy="0" r="1" gradientUnits="userSpaceOnUse" gradientTransform="translate(191.432 16.9686) rotate(90) scale(187.141 209.399)">
<stop stop-color="#3A3B3E"/>
<stop offset="0.619792" stop-color="#232528"/>
<stop offset="1" stop-color="#15181B"/>
</radialGradient>
<linearGradient id="paint18_linear_104_60" x1="195.584" y1="248.105" x2="195.584" y2="246.924" gradientUnits="userSpaceOnUse">
<stop stop-color="#575A62" stop-opacity="0.99967"/>
<stop offset="1" stop-color="#878A95" stop-opacity="0"/>
</linearGradient>
<linearGradient id="paint19_linear_104_60" x1="195.584" y1="248.012" x2="195.584" y2="246.239" gradientUnits="userSpaceOnUse">
<stop stop-color="#6B6F7A" stop-opacity="0"/>
<stop offset="1" stop-color="#EBEBED"/>
</linearGradient>
<clipPath id="clip0_104_60">
<rect width="105" height="123" fill="white" transform="translate(138 65)"/>
</clipPath>
</defs>
</svg>
