<svg width="382" height="314" viewBox="0 0 382 314" fill="none" xmlns="http://www.w3.org/2000/svg">
<path fill-rule="evenodd" clip-rule="evenodd" d="M321.401 303.455L295.298 309.333H292.906L217.341 301.765C214.948 301.707 212.448 301.521 210.027 301.795C200.105 302.918 182.527 303.005 171.697 301.697L164.11 301.765L86.8752 309.265H84.717L60.5086 303.767L64.3367 299.246C66.0163 297.254 68.4381 296.609 71.7095 296.316L160.838 288.455C162.352 288.328 163.729 287.596 164.95 286.58H185.613H220.749C222.019 287.693 223.571 288.484 225.69 288.67L308.257 295.935C312.681 296.326 315.913 296.658 318.335 299.656L321.401 303.455Z" fill="url(#paint0_linear_104_32)" stroke="url(#paint1_linear_104_32)" stroke-width="0.196802"/>
<path fill-rule="evenodd" clip-rule="evenodd" d="M60.1455 303.045L86.2412 309.323H88.6422C91.2596 304.796 94.7036 303.753 99.5843 303.301L164.194 297.436C166.575 297.2 169.094 297.18 171.515 297.456C176.061 297.968 184.681 298.302 191.037 298.341L191.057 286.179H160.789C159.53 287.301 157.975 288.088 155.849 288.265L73.2721 295.547C68.8638 295.921 65.6362 296.255 63.1959 299.266L60.1455 303.045Z" fill="url(#paint2_linear_104_32)"/>
<path fill-rule="evenodd" clip-rule="evenodd" d="M86.2018 309.343H88.7209C91.3383 304.796 94.6839 304.147 99.5842 303.694L164.174 297.83C166.555 297.613 169.074 297.574 171.495 297.849C176.041 298.361 185.212 298.617 191.018 298.735V296.216L173.207 295.606C170.019 295.488 166.457 294.917 163.918 295.134L98.4034 300.86C93.9951 301.234 90.2953 302.887 88.2289 306.154L86.2018 309.343Z" fill="url(#paint3_linear_104_32)"/>
<g filter="url(#filter0_f_104_32)">
<path d="M190.644 296.216L173.227 295.606C170.039 295.488 166.477 294.917 163.938 295.134L98.4231 300.86C93.9951 301.234 90.3149 302.887 88.2485 306.154L86.2215 309.343" stroke="white" stroke-width="0.1968"/>
</g>
<g filter="url(#filter1_f_104_32)">
<path d="M191.077 296.216L172.853 295.606C169.684 295.488 166.122 294.917 163.584 295.134L98.0689 300.86C93.6409 301.234 89.9607 302.887 87.8746 306.154L85.8476 309.343" stroke="white" stroke-width="0.23616"/>
</g>
<path fill-rule="evenodd" clip-rule="evenodd" d="M321.384 303.045L295.288 309.323H292.887C290.269 304.796 286.825 303.753 281.945 303.301L217.335 297.436C214.954 297.2 212.435 297.18 210.014 297.456C205.468 297.968 196.848 298.302 190.492 298.341L190.472 286.179H220.74C221.999 287.301 223.554 288.088 225.68 288.265L308.257 295.547C312.665 295.921 315.893 296.255 318.333 299.266L321.384 303.045Z" fill="url(#paint4_linear_104_32)"/>
<path fill-rule="evenodd" clip-rule="evenodd" d="M295.327 309.343H292.808C290.191 304.796 286.845 304.147 281.945 303.694L217.355 297.83C214.974 297.613 212.455 297.574 210.034 297.849C205.488 298.361 196.317 298.617 190.512 298.735V296.216L208.322 295.606C211.51 295.488 215.072 294.917 217.611 295.134L283.126 300.86C287.534 301.234 291.234 302.887 293.3 306.154L295.327 309.343Z" fill="url(#paint5_linear_104_32)"/>
<g filter="url(#filter2_f_104_32)">
<path d="M190.885 296.216L208.302 295.606C211.49 295.488 215.052 294.917 217.591 295.134L283.106 300.86C287.534 301.234 291.214 302.887 293.28 306.154L295.307 309.343" stroke="white" stroke-width="0.1968"/>
</g>
<g filter="url(#filter3_f_104_32)">
<path d="M190.452 296.216L208.676 295.606C211.845 295.488 215.407 294.917 217.945 295.134L283.46 300.86C287.888 301.234 291.568 302.887 293.654 306.154L295.681 309.343" stroke="white" stroke-width="0.23616"/>
</g>
<path d="M217.36 291.853C217.36 293.611 205.906 295.037 191.765 295.037C177.625 295.037 166.17 293.611 166.17 291.853C166.17 290.086 177.625 288.66 191.765 288.66C205.906 288.66 217.36 290.086 217.36 291.853Z" fill="url(#paint6_linear_104_32)" stroke="url(#paint7_linear_104_32)" stroke-width="0.196802"/>
<path d="M168.253 290.883H214.167C214.364 290.883 214.521 291.04 214.521 291.237V299.424C214.521 299.64 167.899 295.901 167.899 299.424V291.237C167.899 291.04 168.057 290.883 168.253 290.883Z" fill="url(#paint8_linear_104_32)"/>
<path d="M168.253 247.547H214.167C214.364 247.547 214.521 247.705 214.521 247.902V291.65C214.521 291.847 214.364 292.004 214.167 292.004C198.895 291.139 183.545 291.296 168.253 292.004C168.057 292.004 167.899 291.847 167.899 291.65V247.902C167.899 247.705 168.057 247.547 168.253 247.547Z" fill="url(#paint9_linear_104_32)"/>
<mask id="mask0_104_32" style="mask-type:luminance" maskUnits="userSpaceOnUse" x="167" y="247" width="48" height="46">
<path d="M168.253 247.547H214.167C214.364 247.547 214.521 247.705 214.521 247.902V291.65C214.521 291.847 214.364 292.004 214.167 292.004C198.895 291.139 183.545 291.296 168.253 292.004C168.057 292.004 167.899 291.847 167.899 291.65V247.902C167.899 247.705 168.057 247.547 168.253 247.547Z" fill="white"/>
</mask>
<g mask="url(#mask0_104_32)">
<g filter="url(#filter4_f_104_32)">
<path d="M168.253 247.547H214.167C214.364 247.547 214.521 247.705 214.521 247.902V292.044C214.521 292.241 214.364 292.398 214.167 292.398C198.679 291.591 183.368 291.552 168.253 292.398C168.057 292.398 167.899 292.241 167.899 292.044V247.902C167.899 247.705 168.057 247.547 168.253 247.547Z" stroke="url(#paint10_linear_104_32)" stroke-width="0.7872"/>
</g>
</g>
<path d="M365.475 233.757C365.71 233.992 365.891 234.24 366.026 234.491C365.992 235.395 365.715 235.88 364.224 235.879C364.061 235.766 363.899 235.638 363.747 235.486C362.55 233.92 364.954 235.328 364.629 233.154C364.918 233.292 365.213 233.495 365.475 233.757Z" fill="url(#paint11_radial_104_32)"/>
<path d="M16.0845 233.757C15.8497 233.992 15.6692 234.24 15.5344 234.491C15.5681 235.395 15.8454 235.88 17.3361 235.879C17.4993 235.766 17.661 235.638 17.8129 235.486C19.0098 233.92 16.606 235.328 16.9309 233.154C16.6415 233.292 16.3469 233.495 16.0845 233.757Z" fill="url(#paint12_radial_104_32)"/>
<path d="M376.084 5.44427H5.52734C4.94649 5.44427 4.47562 5.91515 4.47562 6.49599V245.079C4.47562 245.66 4.94649 246.131 5.52734 246.131H376.084C376.665 246.131 377.136 245.66 377.136 245.079V6.49599C377.136 5.91515 376.665 5.44427 376.084 5.44427Z" fill="url(#paint13_linear_104_32)"/>
<path d="M364.867 15.7487H16.7449C16.1641 15.7487 15.6932 16.2196 15.6932 16.8004V234.778C15.6932 235.359 16.1641 235.83 16.7449 235.83H364.867C365.448 235.83 365.918 235.359 365.918 234.778V16.8004C365.918 16.2196 365.448 15.7487 364.867 15.7487Z" fill="url(#paint14_linear_104_32)"/>
<path d="M376.478 3.67326H5.13374C4.9333 3.67326 4.77081 3.83575 4.77081 4.03618V5.08154C4.77081 5.28198 4.9333 5.44446 5.13374 5.44446H376.478C376.678 5.44446 376.841 5.28198 376.841 5.08154V4.03618C376.841 3.83575 376.678 3.67326 376.478 3.67326Z" fill="url(#paint15_linear_104_32)"/>
<path d="M376.478 246.241H5.13374C4.9333 246.241 4.77081 246.403 4.77081 246.604V247.649C4.77081 247.85 4.9333 248.012 5.13374 248.012H376.478C376.678 248.012 376.841 247.85 376.841 247.649V246.604C376.841 246.403 376.678 246.241 376.478 246.241Z" fill="url(#paint16_linear_104_32)"/>
<path d="M363.552 16.9728H18.0674C17.4866 16.9728 17.0157 17.4437 17.0157 18.0245V233.543C17.0157 234.123 17.4866 234.594 18.0674 234.594H363.552C364.133 234.594 364.604 234.123 364.604 233.543V18.0245C364.604 17.4437 364.133 16.9728 363.552 16.9728Z" fill="url(#paint17_radial_104_32)"/>
<path d="M376.478 246.241H5.13374C4.9333 246.241 4.77081 246.403 4.77081 246.604V247.649C4.77081 247.85 4.9333 248.012 5.13374 248.012H376.478C376.678 248.012 376.841 247.85 376.841 247.649V246.604C376.841 246.403 376.678 246.241 376.478 246.241Z" fill="url(#paint18_linear_104_32)"/>
<path opacity="0.65639" d="M376.478 246.241H5.13374C4.9333 246.241 4.77081 246.403 4.77081 246.604V247.649C4.77081 247.85 4.9333 248.012 5.13374 248.012H376.478C376.678 248.012 376.841 247.85 376.841 247.649V246.604C376.841 246.403 376.678 246.241 376.478 246.241Z" fill="url(#paint19_linear_104_32)"/>
<path d="M94.5 114V94H98.5V90H102.5V86H114.5V90H118.5V94H122.5V114H114.5V106H102.5V114H94.5ZM102.5 102H114.5V94H110.5V90H106.5V94H102.5V102ZM134.5 114V110H130.5V106H126.5V94H130.5V90H134.5V86H150.5V90H154.5V94H146.5V90H138.5V94H134.5V106H138.5V110H146.5V106H154.5V110H150.5V114H134.5ZM166.5 114V110H162.5V106H158.5V94H162.5V90H166.5V86H182.5V90H186.5V94H178.5V90H170.5V94H166.5V106H170.5V110H178.5V106H186.5V110H182.5V114H166.5ZM190.5 114V86H218.5V90H198.5V98H214.5V102H198.5V110H218.5V114H190.5ZM226.5 114V110H222.5V106H230.5V110H242.5V102H226.5V98H222.5V90H226.5V86H246.5V90H250.5V94H242.5V90H230.5V98H246.5V102H250.5V110H246.5V114H226.5ZM258.5 114V110H254.5V106H262.5V110H274.5V102H258.5V98H254.5V90H258.5V86H278.5V90H282.5V94H274.5V90H262.5V98H278.5V102H282.5V110H278.5V114H258.5ZM86.5 163V159H82.5V155H78.5V143H82.5V139H86.5V135H106.5V139H90.5V143H86.5V155H90.5V159H98.5V151H94.5V147H106.5V163H86.5ZM110.5 163V135H134.5V139H138.5V151H130.5V155H134.5V159H138.5V163H126.5V159H122.5V155H118.5V163H110.5ZM118.5 151H126.5V147H130.5V139H118.5V151ZM142.5 163V143H146.5V139H150.5V135H162.5V139H166.5V143H170.5V163H162.5V155H150.5V163H142.5ZM150.5 151H162.5V143H158.5V139H154.5V143H150.5V151ZM174.5 163V135H182.5V139H186.5V143H190.5V147H194.5V135H202.5V163H194.5V155H190.5V151H186.5V147H182.5V163H174.5ZM218.5 163V139H210.5V135H234.5V139H226.5V163H218.5ZM238.5 163V135H266.5V139H246.5V147H262.5V151H246.5V159H266.5V163H238.5ZM270.5 163V135H290.5V139H294.5V143H298.5V155H294.5V159H290.5V163H270.5ZM278.5 159H286.5V155H290.5V143H286.5V139H278.5V159Z" fill="#00870E"/>
<defs>
<filter id="filter0_f_104_32" x="85.7871" y="294.635" width="105.211" height="15.1114" filterUnits="userSpaceOnUse" color-interpolation-filters="sRGB">
<feFlood flood-opacity="0" result="BackgroundImageFix"/>
<feBlend mode="normal" in="SourceGraphic" in2="BackgroundImageFix" result="shape"/>
<feGaussianBlur stdDeviation="0.175686" result="effect1_foregroundBlur_104_32"/>
</filter>
<filter id="filter1_f_104_32" x="85.5137" y="294.733" width="105.801" height="14.9074" filterUnits="userSpaceOnUse" color-interpolation-filters="sRGB">
<feFlood flood-opacity="0" result="BackgroundImageFix"/>
<feBlend mode="normal" in="SourceGraphic" in2="BackgroundImageFix" result="shape"/>
<feGaussianBlur stdDeviation="0.117124" result="effect1_foregroundBlur_104_32"/>
</filter>
<filter id="filter2_f_104_32" x="190.531" y="294.635" width="105.211" height="15.1114" filterUnits="userSpaceOnUse" color-interpolation-filters="sRGB">
<feFlood flood-opacity="0" result="BackgroundImageFix"/>
<feBlend mode="normal" in="SourceGraphic" in2="BackgroundImageFix" result="shape"/>
<feGaussianBlur stdDeviation="0.175686" result="effect1_foregroundBlur_104_32"/>
</filter>
<filter id="filter3_f_104_32" x="190.214" y="294.733" width="105.801" height="14.9074" filterUnits="userSpaceOnUse" color-interpolation-filters="sRGB">
<feFlood flood-opacity="0" result="BackgroundImageFix"/>
<feBlend mode="normal" in="SourceGraphic" in2="BackgroundImageFix" result="shape"/>
<feGaussianBlur stdDeviation="0.117124" result="effect1_foregroundBlur_104_32"/>
</filter>
<filter id="filter4_f_104_32" x="167.31" y="246.958" width="47.8001" height="46.0289" filterUnits="userSpaceOnUse" color-interpolation-filters="sRGB">
<feFlood flood-opacity="0" result="BackgroundImageFix"/>
<feBlend mode="normal" in="SourceGraphic" in2="BackgroundImageFix" result="shape"/>
<feGaussianBlur stdDeviation="0.0977486" result="effect1_foregroundBlur_104_32"/>
</filter>
<linearGradient id="paint0_linear_104_32" x1="155.782" y1="300.648" x2="231.61" y2="300.982" gradientUnits="userSpaceOnUse">
<stop stop-color="#16191E"/>
<stop offset="0.16349" stop-color="#3A3D43"/>
<stop offset="0.23888" stop-color="#16191E"/>
<stop offset="0.46134" stop-color="#4A4F56"/>
<stop offset="0.66194" stop-color="#16191E"/>
<stop offset="0.75" stop-color="#36393F"/>
<stop offset="1" stop-color="#16191E"/>
</linearGradient>
<linearGradient id="paint1_linear_104_32" x1="60.4062" y1="297.951" x2="321.49" y2="297.951" gradientUnits="userSpaceOnUse">
<stop/>
<stop offset="1" stop-opacity="0"/>
</linearGradient>
<linearGradient id="paint2_linear_104_32" x1="74.4332" y1="306.646" x2="76.4209" y2="297.948" gradientUnits="userSpaceOnUse">
<stop stop-color="#53555A"/>
<stop offset="1" stop-color="#E7E8EC"/>
</linearGradient>
<linearGradient id="paint3_linear_104_32" x1="188.681" y1="297.475" x2="86.1289" y2="297.475" gradientUnits="userSpaceOnUse">
<stop stop-color="#9C9EAA"/>
<stop offset="0.16567" stop-color="#32373B"/>
<stop offset="0.20498" stop-color="#9C9EA9"/>
<stop offset="0.23579" stop-color="#363B3F"/>
<stop offset="0.74124" stop-color="#515257"/>
<stop offset="1" stop-color="#4A4F53"/>
</linearGradient>
<linearGradient id="paint4_linear_104_32" x1="307.096" y1="306.646" x2="305.108" y2="297.948" gradientUnits="userSpaceOnUse">
<stop stop-color="#53555A"/>
<stop offset="1" stop-color="#E7E8EC"/>
</linearGradient>
<linearGradient id="paint5_linear_104_32" x1="192.848" y1="297.475" x2="295.4" y2="297.475" gradientUnits="userSpaceOnUse">
<stop stop-color="#9C9EAA"/>
<stop offset="0.16567" stop-color="#32373B"/>
<stop offset="0.20498" stop-color="#868896"/>
<stop offset="0.23579" stop-color="#363B3F"/>
<stop offset="0.74124" stop-color="#515257"/>
<stop offset="1" stop-color="#4A4F53"/>
</linearGradient>
<linearGradient id="paint6_linear_104_32" x1="194.459" y1="296.055" x2="194.459" y2="290.28" gradientUnits="userSpaceOnUse">
<stop stop-color="#B5B7BB"/>
<stop offset="1" stop-color="#E5E6EA"/>
</linearGradient>
<linearGradient id="paint7_linear_104_32" x1="189.339" y1="295.854" x2="189.339" y2="290.717" gradientUnits="userSpaceOnUse">
<stop stop-color="#888B95"/>
<stop offset="1" stop-color="#F0F1F5"/>
</linearGradient>
<linearGradient id="paint8_linear_104_32" x1="197.99" y1="291.674" x2="197.99" y2="296.102" gradientUnits="userSpaceOnUse">
<stop stop-color="#979AA4"/>
<stop offset="1" stop-color="#979AA4" stop-opacity="0"/>
</linearGradient>
<linearGradient id="paint9_linear_104_32" x1="172.032" y1="276.064" x2="172.563" y2="237.117" gradientUnits="userSpaceOnUse">
<stop stop-color="#979AA4"/>
<stop offset="1" stop-color="#50525A"/>
</linearGradient>
<linearGradient id="paint10_linear_104_32" x1="177.601" y1="291.985" x2="177.601" y2="268.861" gradientUnits="userSpaceOnUse">
<stop stop-color="#4C5059"/>
<stop offset="1" stop-color="#818590"/>
</linearGradient>
<radialGradient id="paint11_radial_104_32" cx="0" cy="0" r="1" gradientUnits="userSpaceOnUse" gradientTransform="translate(364.613 234.619) rotate(-45) scale(1.22069 2.01412)">
<stop stop-color="#CCCCCC"/>
<stop offset="1" stop-color="#C1C1C1" stop-opacity="0"/>
</radialGradient>
<radialGradient id="paint12_radial_104_32" cx="0" cy="0" r="1" gradientUnits="userSpaceOnUse" gradientTransform="translate(16.9466 234.619) rotate(-135) scale(1.22069 2.01412)">
<stop stop-color="#CCCCCC"/>
<stop offset="1" stop-color="#C1C1C1" stop-opacity="0"/>
</radialGradient>
<linearGradient id="paint13_linear_104_32" x1="97.3691" y1="243.297" x2="97.3691" y2="5.29294" gradientUnits="userSpaceOnUse">
<stop stop-color="#1D2025"/>
<stop offset="1" stop-color="#31343B"/>
</linearGradient>
<linearGradient id="paint14_linear_104_32" x1="192.475" y1="235.149" x2="192.475" y2="15.5088" gradientUnits="userSpaceOnUse">
<stop stop-color="#5E6169"/>
<stop offset="1" stop-color="#1C2125"/>
</linearGradient>
<linearGradient id="paint15_linear_104_32" x1="7.61064" y1="4.63955" x2="184.012" y2="4.63955" gradientUnits="userSpaceOnUse">
<stop stop-color="#ABAFB8"/>
<stop offset="1" stop-color="#BEBDC5"/>
</linearGradient>
<linearGradient id="paint16_linear_104_32" x1="5.54424" y1="247.207" x2="184.012" y2="247.207" gradientUnits="userSpaceOnUse">
<stop stop-color="#8F919D"/>
<stop offset="1" stop-color="#878A95"/>
</linearGradient>
<radialGradient id="paint17_radial_104_32" cx="0" cy="0" r="1" gradientUnits="userSpaceOnUse" gradientTransform="translate(190.802 16.9686) rotate(90) scale(187.141 209.399)">
<stop stop-color="#3A3B3E"/>
<stop offset="0.619792" stop-color="#232528"/>
<stop offset="1" stop-color="#15181B"/>
</radialGradient>
<linearGradient id="paint18_linear_104_32" x1="194.954" y1="248.105" x2="194.954" y2="246.924" gradientUnits="userSpaceOnUse">
<stop stop-color="#575A62" stop-opacity="0.99967"/>
<stop offset="1" stop-color="#878A95" stop-opacity="0"/>
</linearGradient>
<linearGradient id="paint19_linear_104_32" x1="194.954" y1="248.012" x2="194.954" y2="246.239" gradientUnits="userSpaceOnUse">
<stop stop-color="#6B6F7A" stop-opacity="0"/>
<stop offset="1" stop-color="#EBEBED"/>
</linearGradient>
</defs>
</svg>
